<?xml version="1.0" encoding="utf-8"?>
<!-- Generator: Adobe Illustrator 27.5.0, SVG Export Plug-In . SVG Version: 6.00 Build 0)  -->
<svg version="1.1" id="Layer_1" xmlns="http://www.w3.org/2000/svg" xmlns:xlink="http://www.w3.org/1999/xlink" x="0px" y="0px"
	 viewBox="0 0 337.104 255.234" style="enable-background:new 0 0 337.104 255.234;" xml:space="preserve">
<g>
	<g>
		<g>
			<path style="fill:#C2C9C8;" d="M41.632,215.085c0,0-4.637,38.746,21.135,36.201c25.778-2.545,14.159-29.411,41.261-35.318
				c27.084-5.9,138.751-7.369,138.751-7.369s15.712,29.792,37.077,24.115c21.377-5.677,5.247-45.934-40.402-52.584
				C193.822,173.474,50.186,197.124,41.632,215.085z"/>
			<g>
				<g>
					<path style="fill:#6E6E6D;" d="M320.615,162.985c1.62-1.511,3.422-2.956,4.819-4.685c3.651-4.516,5.574-8.809,6.408-14.509
						c1.04-7.013-1.971-15.132-6.366-21.105c-2.708-4.8-6.862-8.555-12.224-10.985c-15.216-9.721-33.25-9.751-42.633,10.078
						c-0.018,0.024-0.018,0.055-0.024,0.079c-0.26,0.32-0.52,0.628-0.774,0.955c-0.32,0.417-0.659,0.943-1.01,1.493
						c-0.659,0.29-1.348,0.514-2.025,0.768c-24.273,2.466-48.612,4.994-72.97,7.388c-23.305,1.335-15.32,0.755-38.643,1.523
						c-24.708,0.823-6.124-1.445-30.82-0.157c-13.252,0.695-26.256,1.336-39.471-0.471c-6.838-0.925-14.975-2.026-21.752-4.94
						c-6.101-8.602-16.729-14.763-25.954-12.381c-14.582,3.766-29.756,16.855-31.413,31.606c-0.828,3.803-0.997,7.666-0.139,11.142
						c1.39,5.61,3.724,9.685,7.793,13.839c1.548,1.572,3.489,2.847,5.26,4.195c8.337,6.36,7.291,11.045,2.159,18.239
						c-14.805,20.827-0.599,46.279,23.426,49.84c10.907,1.62,22.121-3.398,30.422-9.981c6.934-5.496,9.413-13.627,10.102-22.018
						c8.27-7.05,18.433-6.904,29.641-7.079c10.405-0.17,8.687-0.695,19.037-1.639c20.894-1.91,10.798-1.312,31.757-2.436
						c21.54-1.161,11.662-1.777,33.238-2.509c10.749-0.363,21.522-0.297,32.277,0.054c5.731,0.193,11.432,0.285,17.03,1.608
						c3.585,0.841,6.976,3.053,10.531,4.402c1.505,8.277,4.764,16.154,12.194,20.954c8.905,5.737,20.548,9.655,31.255,6.977
						c23.566-5.876,35.233-32.573,18.469-51.864C314.43,174.689,312.925,170.125,320.615,162.985z"/>
					<path style="fill:#FFFCEB;" d="M301.045,156.456c-0.284,0.961-0.568,1.917-0.858,2.878c-0.466,1.832-0.508,3.675-0.109,5.526
						c0.822,2.158,2.472,4.153,4.28,5.87c-0.018-1.221,0.193-2.478,0.75-3.772c5.616-12.998,24.853-17.804,18.197-36.104
						c-5.846-16.087-26.213-21.201-40.626-12.575c-7.079,4.25-10.295,10.199-12.762,17.344c-1.753,2.902-3.065,6.106-3.754,9.533
						c-0.102,0.49-0.737,4.202-0.925,7.636c-0.248,0.133-0.533,0.151-0.756-0.091c-4.16-4.165-2.158-13.826,0.876-21.377
						c-6.704,2.497-14.285,2.72-21.546,3.361c-13.79,1.24-27.634,2.074-41.466,2.848c-5.513,0.32-11.039,0.622-16.559,0.919
						c-25.518,2.406-19.624,3.912-45.251,5.097c-24.823,1.124-6.554-0.182-31.401-0.387c-10.573-0.085-20.669-1.554-31.122-2.624
						c-3.881-0.399-7.551-0.883-10.471-2.696c1.064,4.425,0.768,8.935-1.536,12.931c-0.23,0.411-0.665,0.677-1.082,0.767
						c-0.689-0.272-1.172-1.016-1.589-2.122c-0.03-0.06-0.042-0.127-0.061-0.205c0.091-0.242,0.218-0.483,0.417-0.665
						c0.302-8.331-5.15-18.596-12.865-24.116c-5.785-3.615-11.952-4.945-20.47-0.096c-9.062,5.162-18.699,12.671-19.666,23.994
						c-1.058,12.109,5.882,17.822,14.509,24.473c1.088,0.834,2.43,1.843,3.658,3.01c0.514-3.537,0.121-7.207-2.043-11.233
						c-1.965-3.669-1.675-2.787-2.672-6.856c-0.29-1.197,1.342-3.132,2.406-1.832c5.363,6.536,10.501,10.997,8.101,20.078
						c-0.653,2.503-1.584,5.023-2.593,7.575c-0.387,4.335-2.122,7.913-4.673,11.625c-2.346,6.505-3.773,13.101-1.76,19.697
						c4.673,15.125,18.106,23.299,33.837,17.223c4.643-1.802,8.222-4.208,11.033-7.115c8.361-6.687,13.234-17.23,12.593-28.142
						c0.17,0.188,0.308,0.435,0.375,0.822c0.713,0.272,1.24,0.968,1.318,2.279c0.176,2.865,0.278,5.864,0.217,8.875
						c9.854-8.875,24.225-6.644,38.655-7.714c25.718-1.904,8.168-2.062,33.922-3.331c25.941-1.281,20.434-2.648,46.43-3.143
						c17.314-0.308,37.808-2.872,53.594,5.652c-0.291-2.66-0.448-5.308-0.544-7.871c0-0.078,0.018-0.127,0.018-0.2
						c1.24,4.964,3.682,9.867,6.922,14.129c0.798,1.644,1.669,3.24,2.63,4.739c2.068,5.369,5.677,9.885,12.314,13.204
						c11.384,5.683,24.515,2.889,33.831-4.945c2.617-2.201,4.637-4.612,6.088-7.164c0.737-4.716,0.986-9.57-0.49-13.929
						c-1.462-4.371-3.609-8.138-5.924-11.922c-3.634-2.769-6.795-6.39-10.018-9.443c-2.853-2.702-5.64-5.472-6.825-9.304
						c-0.611-1.953-0.502-4.123,0.072-6.257c0.677-1.753,1.656-3.391,2.92-4.842c0.121-0.127,0.23-0.249,0.327-0.363
						c0.725-0.768,1.517-1.445,2.376-2.085c0.701-0.448,1.481-0.798,2.224-1.173c-0.073,0.133-0.151,0.26-0.23,0.393
						c-0.187,0.363-0.641,0.616-0.991,0.611C302.605,154.703,302.2,155.567,301.045,156.456z"/>
					<path style="fill:#C7C8CA;" d="M301.045,156.456c-0.284,0.961-0.568,1.917-0.858,2.878c-0.466,1.832-0.508,3.675-0.109,5.526
						c0.822,2.158,2.472,4.153,4.28,5.87c-0.018-1.221,0.193-2.478,0.75-3.772c4.595-10.616,18.251-15.767,19.484-27.272
						c-3.119,1.494-6.432,2.043-9.763,0.968c-3.615-1.167-7.478-1.204-10.967-2.437c-5.556-1.977-12.351,5.52-14.521,9.873
						c-3.754,7.502-3.808,14.533-1.644,22.452c1.257,4.583,3.017,9.625,2.551,14.432c-0.514,5.325-7.364,15.573-13.554,10.283
						c-3.41-2.914-4.256-7.339-6.874-10.809c-1.705-2.255-2.672-6.233-5.484-6.928c-15.005-3.73-29.187-1.554-44.356-0.314
						c-17.435,1.415-35.07,1.27-52.535,2.297c-17.811,1.04-4.299,0.465-22.06,1.983c-19.213,1.65,4.866,1.626-14.365,3.126
						c-8.784,0.689-17.804,1.094-26.546-0.447c-6.396-1.137-13.487-5.133-20.071-4.734c-5.006,0.308-7.66,5.496-10.622,8.899
						c-3.27,3.748-6.735,7.69-11.371,9.781c-6.022,2.709-11.263,0.466-14.268-5.332c-3.882-7.49-5.163-16.069-6.855-24.243
						c-1.753-8.434-5.036-26.679-16.759-25.482c-4.056,0.405-8.113,1.819-10.821-2.297c-0.169-0.266-0.333-0.538-0.496-0.804
						c-1.354,2.533-2.261,5.302-2.521,8.379c-1.058,12.109,5.882,17.822,14.509,24.473c1.088,0.834,2.43,1.843,3.658,3.01
						c0.514-3.537,0.121-7.207-2.043-11.233c-1.965-3.669-1.675-2.787-2.672-6.856c-0.29-1.197,1.342-3.132,2.406-1.832
						c5.363,6.536,10.501,10.997,8.101,20.078c-0.653,2.503-1.584,5.023-2.593,7.575c-0.387,4.335-2.122,7.913-4.673,11.625
						c-2.346,6.505-3.773,13.101-1.76,19.697c4.673,15.125,18.106,23.299,33.837,17.223c4.643-1.802,8.222-4.208,11.033-7.115
						c8.361-6.687,13.234-17.23,12.593-28.142c0.17,0.188,0.308,0.435,0.375,0.822c0.713,0.272,1.24,0.968,1.318,2.279
						c0.176,2.865,0.278,5.864,0.217,8.875c9.854-8.875,24.225-6.644,38.655-7.714c25.718-1.904,8.168-2.062,33.922-3.331
						c25.941-1.281,20.434-2.648,46.43-3.143c17.314-0.308,37.808-2.872,53.594,5.652c-0.291-2.66-0.448-5.308-0.544-7.871
						c0-0.078,0.018-0.127,0.018-0.2c1.24,4.964,3.682,9.867,6.922,14.129c0.798,1.644,1.669,3.24,2.63,4.739
						c2.068,5.369,5.677,9.885,12.314,13.204c11.384,5.683,24.515,2.889,33.831-4.945c2.617-2.201,4.637-4.612,6.088-7.164
						c0.737-4.716,0.986-9.57-0.49-13.929c-1.462-4.371-3.609-8.138-5.924-11.922c-3.634-2.769-6.795-6.39-10.018-9.443
						c-2.853-2.702-5.64-5.472-6.825-9.304c-0.611-1.953-0.502-4.123,0.072-6.257c0.677-1.753,1.656-3.391,2.92-4.842
						c0.121-0.127,0.23-0.249,0.327-0.363c0.725-0.768,1.517-1.445,2.376-2.085c0.701-0.448,1.481-0.798,2.224-1.173
						c-0.073,0.133-0.151,0.26-0.23,0.393c-0.187,0.363-0.641,0.616-0.991,0.611C302.605,154.703,302.2,155.567,301.045,156.456z"/>
				</g>
			</g>
		</g>
		<g>
			<path style="fill:#E43331;" d="M117.751,155.209c-0.839-3.084-4.318-8.816-12.887-6.491l-16.041,4.367
				c-0.875,0.241-3.851,0.04,3.166,25.852c0.152,0.577,0.301,1.133,0.468,1.675c0.404,2.107,0.87,4.173,1.305,6.101
				c0.743,3.321,1.982,11.708,6.604,12.423c3.048,0.474,7.304,0.081,8.206-3.52c1.081-4.246-2.454-7.939-4.95-11.672
				c-0.052-0.184-0.106-0.375-0.151-0.555C101.671,176.809,121.556,169.21,117.751,155.209z M99.513,160.33
				c0.807-2.415,3.011-3.293,5.349-2.767c2.983,0.672,3.178,4.219,2.901,6.601c-0.112,0.95-0.452,1.844-0.898,2.674
				c-0.794,0.903-1.702,1.709-2.97,2.25C98.455,171.411,98.613,163.098,99.513,160.33z"/>
			<path style="fill:#E43331;" d="M131.065,180.556c-1.945,0.74-4.005,2.498-3.607,4.783c-0.839,1.152-2.842,1.615-3.986,0.874
				c-0.104-0.055-0.197-0.08-0.289-0.078c-0.791-0.735-1.389-1.621-1.313-2.473c1.667-3.435,13.387-3.718,12.517-12.235
				c-0.506-5.113-4.81-7.386-9.572-6.906c-5.794,0.59-11.075,6.369-10.022,16.849c0.707,6.926,4.559,13.013,12.315,12.223
				c4.545-0.454,8.127-3.278,8.562-7.67C136.52,182.995,134.713,179.147,131.065,180.556z M127.069,173.041
				c-0.562,1.006-1.678,1.428-2.703,1.851c-0.426,0.177-1.078,0.454-1.772,0.655c-0.829-0.253-1.348-0.8-0.94-2.113
				c0.386-1.299,2.952-1.713,4.042-1.602C126.278,171.887,127.503,172.292,127.069,173.041z"/>
			<path style="fill:#E43331;" d="M147.358,155.028c-0.118-0.002-2.119,0.644-1.757-0.047c0.411-0.816,0.989-1.549,1.349-2.404
				c0.598-1.407,0.715-2.639-0.151-3.943c-1.966-2.965-7.059-0.054-8.7,1.68c-1.469,1.548-1.299,3.854-0.589,6.165
				c-0.864-0.15-1.756-0.191-2.494-0.165c-3.586,0.098-4.441,4.706-3.574,7.359c0.906,2.796,3.711,2.696,6.408,2.035
				c0.118,0.733,0.123,1.507,0.174,2.109c0.111,1.022,0.049,3.641,0.711,10.251c0.31,2.955,2.061,14.892,4.096,14.683
				c1.242-0.125,7.17-3.763,7.086-4.572c-0.097-0.906-3.341-2.972-4.781-17.275c-0.291-2.788-0.512-5.087-0.072-6.607
				c2.928,0.313,5.794,1.362,6.993-2.566C153.203,157.977,151.167,155.046,147.358,155.028z"/>
			<path style="fill:#E43331;" d="M190.043,175.329c-2.449-9.583-16.21-5.962-17.448-10.821c-0.086-0.275-0.041-0.537,0.028-0.786
				c0.259-0.163,0.483-0.356,0.712-0.586c0.489-0.537,0.875-0.669,1.605-0.809c0.961-0.171,1.845-0.035,2.708,0.246
				c1.05,1.039,1.893,2.06,2.042,2.295c0.975,1.6,3.208,1.77,4.714,0.808c4.04-2.598,3.938-7.95,0.483-11.027
				c-3.961-3.53-10.719-0.793-14.478,3.144c-2.803,2.072-4.395,5.387-3.355,9.437c2.273,8.884,13.504,5.315,15.748,9.025
				c0.028,0.379,0.069,0.76,0.102,1.174c0.306,3.157-3.815,2.713-5.649,2.331c-3.177-0.633-3.999-4.024-7.103-4.74
				c-1.004-0.235-1.995,0.5-2.698,1.481c-1.869,1.865-2.188,4.656-1.183,7.177c1.232,3.089,5.595,4.355,8.573,4.335
				c0.351-0.01,0.709-0.039,1.061-0.06c0.566,0.067,1.173,0.102,1.767,0.093c1.349,0.099,2.727,0.002,4.064-0.343
				C187.397,186.249,191.609,181.46,190.043,175.329z"/>
			<path style="fill:#E43331;" d="M201.385,157.809c-1.352,0.137-2.455,0.747-3.342,1.334c-0.854,0.622-1.474,1.059-1.799,1.097
				c-0.702,0.07-0.771-0.72-0.826-1.202c-0.33-3.282,0.813-7.456,0.771-8.028c-0.06-0.411-0.386-0.832-0.752-0.796l-4.472,0.453
				c-2.252,0.231-0.835,15.118-0.498,18.393c1.838,18.197,1.706,16.801,2.898,16.68l4.045-0.407c0.408-0.043,1.201-0.117,1.129-0.77
				c-0.122-1.196-1.29-3.765-2.124-11.961c-0.027-0.323-0.072-0.681-0.095-1.066c0.154-0.67,0.356-1.332,0.603-1.976
				c0.394-1,1.051-1.667,1.808-2.201c1.549-0.171,3.182,1.712,3.744,3.003c1.162,2.738,0.805,5.77,0.986,8.661
				c-0.243,2.853-0.546,5.072-0.53,5.218c0.074,0.651,1.159,0.417,1.541,0.377l4.264-0.43c1.257-0.131,0.78-10.554,0.395-14.487
				C208.124,159.821,205.105,157.434,201.385,157.809z"/>
			<path style="fill:#E43331;" d="M246.033,151.016c-7.363,0.741-8.128,0.166-7.192,9.389l0.603,5.888
				c-0.364,2.756-0.277,5.646-0.335,8.329c-0.069,3.368,0.75,6.804,4.409,7.548c2.395,0.487,5.251-1.575,5.379-4.08
				c0.088-1.791-0.332-3.163-1.031-4.643c0.844,0.25,1.755,0.338,2.723,0.223c1.424-0.173,3.012-1.425,4.038-2.917
				c2.591-2.847,4.882-7.476,4.455-11.826C258.615,154.337,255.735,150.035,246.033,151.016z M250.881,164.755
				c-2.144,2.483-4.923-0.781-4.446-3.058C247.677,155.634,254.328,160.787,250.881,164.755z"/>
			<g>
				<path style="fill:#E43331;" d="M212.017,172.074c0.458-3.723,4.092-7.335,11.251-6.463c7.151,0.874,9.829,5.255,9.37,8.977
					c-0.657,5.433-6.526,7.088-11.25,6.504C216.657,180.518,211.35,177.502,212.017,172.074z"/>
				<path style="fill:#E43331;" d="M220.731,159.763c0.012-1.075-0.2-2.078-0.969-2.878c-0.877-0.921-2.386-0.891-3.473-0.453
					c-0.476,0.2-0.959,0.554-1.378,0.986c-1.199,0.721-2.204,1.905-2.602,3.068c-0.423,1.243-0.16,2.393,0.645,3.402
					c0.727,0.92,2.319,1.057,3.377,0.916C218.78,164.487,220.7,162.191,220.731,159.763z"/>
				<path style="fill:#E43331;" d="M228.931,158.123c-0.453-0.117-0.928-0.098-1.409-0.013c-0.646-0.096-1.305-0.031-1.95,0.28
					c-2.07,1.023-3.521,4.102-1.55,5.934c1.689,1.573,4.546,0.689,5.954-0.752C231.783,161.748,231.6,158.84,228.931,158.123z"/>
				<path style="fill:#E43331;" d="M236.856,166.788c0.104-0.914-0.304-1.532-1.067-1.985c-0.661-0.381-1.38-0.222-2,0.102
					c-0.009,0.001-0.009,0.001-0.016,0.005c0,0.006-0.023,0.011-0.023,0.014c-0.073,0.034-0.123,0.067-0.188,0.105
					c-0.723,0.366-1.284,0.986-1.565,1.767c-0.256,0.757-0.12,1.936,0.763,2.248c0.096,0.037,0.214,0.056,0.324,0.08
					c0.319,0.153,0.725,0.185,1.13,0.09c0.124-0.026,0.238-0.089,0.353-0.13C235.691,168.796,236.713,167.965,236.856,166.788z"/>
			</g>
		</g>
	</g>
	<g>
		<g>
			<path style="fill:#4D3F44;" d="M73.621,99.904c0.313,1.8,0.657,3.634,0.402,5.444c-0.254,1.81-1.225,3.628-2.885,4.392
				c-2.029,0.934-4.532,0.014-6.056-1.618c-1.524-1.632-2.273-3.826-2.896-5.97c-2.578-8.863-3.733-18.251-2.31-27.371
				c0.685-4.386,1.988-8.685,3.925-12.682c0.987-2.036,2.138-3.994,3.455-5.834c0.658-0.918,2.867-4.616,4.228-4.402
				c1.211,0.191,0.159,5.106,0.074,6.26c-0.194,2.644-0.326,5.293-0.397,7.943c-0.142,5.3-0.037,10.608,0.314,15.898
				C71.872,87.976,72.588,93.967,73.621,99.904z"/>
			<path style="fill:#302127;" d="M69.376,110.338c-1.72,0-3.398-0.936-4.454-2.068c-1.586-1.698-2.353-4.018-2.947-6.058
				c-2.851-9.805-3.631-19.046-2.316-27.466c0.703-4.507,2.031-8.795,3.944-12.744c1.01-2.085,2.179-4.059,3.474-5.866
				c0.096-0.134,0.225-0.328,0.38-0.56c1.336-2.001,2.862-4.117,4.059-3.93c1.084,0.171,0.81,2.639,0.407,5.374
				c-0.071,0.476-0.132,0.886-0.149,1.119c-0.192,2.628-0.326,5.297-0.396,7.933c-0.141,5.268-0.036,10.61,0.313,15.878
				c0.398,5.992,1.119,12.02,2.145,17.917l0.036,0.204c0.303,1.737,0.617,3.532,0.368,5.308c-0.295,2.094-1.449,3.842-3.012,4.561
				C70.624,110.217,69.998,110.338,69.376,110.338z M71.36,52.072c-1.036,0-2.781,2.613-3.538,3.748
				c-0.159,0.237-0.291,0.435-0.389,0.572c-1.28,1.787-2.437,3.739-3.437,5.802c-1.894,3.91-3.208,8.157-3.905,12.621
				c-1.305,8.356-0.53,17.533,2.304,27.276c0.58,1.992,1.326,4.254,2.846,5.882c1.334,1.428,3.72,2.529,5.805,1.569
				c1.708-0.786,2.546-2.697,2.76-4.224c0.24-1.707-0.068-3.469-0.366-5.172l-0.035-0.204l0,0
				c-1.028-5.912-1.752-11.955-2.15-17.963c-0.35-5.281-0.455-10.637-0.314-15.919c0.071-2.643,0.205-5.319,0.398-7.953
				c0.018-0.249,0.077-0.647,0.151-1.151c0.192-1.302,0.703-4.76-0.042-4.877C71.42,52.074,71.39,52.072,71.36,52.072z"/>
		</g>
		<g>
			<g>
				<path style="fill:#4D3F44;" d="M145.994,22.537c0,0,8.948-13.322,17.896-13.919c8.948-0.597,17.896,18.492,34.002,25.054
					c16.106,6.562,24.258,9.346,24.457,22.27c0.199,12.925-25.452,43.347-27.44,50.903c-6.562-9.345-8.152-20.481-8.152-24.457
					c-0.398-2.784-12.527-5.766-15.708-10.538C167.866,67.077,161.901,32.678,145.994,22.537z"/>
				<path style="fill:#302127;" d="M194.908,107.064c-0.07,0-0.138-0.034-0.18-0.093c-6.72-9.571-8.192-20.991-8.192-24.583
					c-0.169-1.169-3.058-2.568-6.116-4.05c-3.677-1.782-7.845-3.8-9.556-6.367c-0.869-1.304-1.896-4.625-3.317-9.222
					c-3.774-12.209-10.09-32.644-21.672-40.027c-0.05-0.032-0.084-0.082-0.097-0.14c-0.012-0.058,0-0.118,0.033-0.167
					c0.023-0.034,2.287-3.387,5.618-6.767c3.089-3.134,7.754-6.935,12.444-7.248c4.561-0.297,9.119,4.391,14.407,9.825
					c5.456,5.608,11.641,11.965,19.692,15.245l1.864,0.758c15.005,6.092,22.536,9.15,22.73,21.711
					c0.126,8.2-9.94,23.197-18.027,35.247c-4.665,6.949-8.692,12.949-9.42,15.716c-0.022,0.082-0.09,0.145-0.174,0.16
					C194.934,107.063,194.921,107.064,194.908,107.064z M146.303,22.476c11.596,7.57,17.893,27.944,21.664,40.144
					c1.357,4.39,2.429,7.858,3.263,9.109c1.645,2.468,5.757,4.459,9.384,6.216c3.439,1.666,6.155,2.982,6.359,4.413
					c0.003,3.538,1.422,14.591,7.858,23.992c1.012-2.991,4.89-8.769,9.345-15.408c8.054-11.999,18.078-26.933,17.954-34.996
					c-0.189-12.271-7.631-15.293-22.456-21.313l-1.866-0.758c-8.136-3.315-14.354-9.706-19.84-15.345
					c-5.213-5.358-9.731-9.98-14.064-9.694C155.735,9.381,147.422,20.874,146.303,22.476z"/>
			</g>
			<path style="opacity:0.49;fill:#4D3F44;" d="M163.65,8.645c0.68,0.978,1.552,1.863,2.327,2.644
				c3.01,3.035,6.476,5.568,9.915,8.087c1.239,0.908,2.616,1.595,3.941,2.367c1.744,1.015,3.37,2.227,4.598,3.849
				c1.234,1.63,1.771,3.756,3.227,5.214c1.525,1.528,3.795,1.466,5.743,2.02c2.03,0.577,3.704,1.799,4.876,3.55
				c1.098,1.64,1.68,3.562,2.173,5.454c0.704,2.697,0.729,5.515,1.507,8.201c0.234,0.806,0.629,2.275,1.475,2.566
				c1.071,0.369,1.997,0.042,2.594-0.912c0.652-1.041,0.847-2.385,0.978-3.584c0.121-1.107,0.14-2.22,0.14-3.333
				c0-0.559,0.72-0.126,0.905,0.073c0.892,0.958,2.259,2.277,3.659,1.511c1.164-0.636,1.746-2.167,2.159-3.343
				c0.204-0.583,0.376-1.171,0.541-1.761c-3.997-2.575-9.503-4.717-16.519-7.576c-16.106-6.562-25.054-25.65-34.002-25.054
				C163.81,8.624,163.73,8.637,163.65,8.645z"/>
			<path style="opacity:0.63;fill:#4D3F44;" d="M218.281,44.404c0.374,2.866,0.449,5.803-0.182,8.603
				c-0.348,1.545-0.947,3.077-1.94,4.325c-0.598,0.751-1.345,1.512-2.221,1.918c-1.03,0.478-2.118,0.309-3.199,0.521
				c-1.171,0.23-1.985,0.955-2.482,2.007c-0.449,0.951-0.718,1.979-0.952,2.999c-0.46,2.006-0.63,4.117-1.268,6.077
				c-0.075,0.229-0.279,0.428-0.465,0.151c-0.734-1.09-1.613-2.112-2.32-3.228c-0.467,4.997-1.453,9.942-1.466,14.976
				c-0.001,0.219-0.172,0.544-0.419,0.356c-2.37-1.8-4-4.323-4.965-7.118c-1.801-5.221-1.561-10.87-2.122-16.297
				c-0.701-6.787-1.746-13.539-3.262-20.193c-0.364,1.128-0.993,2.178-1.302,3.329c-0.063,0.233-0.359,0.536-0.504,0.174
				c-0.209-0.521-0.425-1.04-0.647-1.556c-2.042-4.733-4.622-9.28-7.843-13.313c-3.174-3.976-7.146-7.641-11.989-9.43
				c-1.042-0.385-2.13-0.712-3.235-0.85c-0.837-0.105-1.681-0.132-2.522-0.166c-1.49-0.059-3.158-0.038-4.512-0.748
				c-1.45-0.76-1.656-2.377-1.399-3.856c0.137-0.786,0.358-1.558,0.663-2.291c-6.481,3.926-11.735,11.741-11.735,11.741
				c15.907,10.141,21.872,44.54,25.054,49.312c3.181,4.772,15.311,7.755,15.708,10.538c0,3.977,1.591,15.112,8.152,24.457
				c1.988-7.556,27.639-37.979,27.44-50.903C222.269,50.768,220.911,47.221,218.281,44.404z"/>
			<g>
				<g>
					<path style="fill:#4D3F44;" d="M179.399,36.257c-7.306-14.46-21.594-11.211-27.897-8.891
						c11.846,13.441,16.762,40.307,19.546,44.483c3.181,4.772,15.311,7.755,15.708,10.538c0,0.585,0.04,1.341,0.12,2.207
						C186.64,76.845,188.333,53.939,179.399,36.257z"/>
					<path style="fill:#302127;" d="M186.876,84.814c-0.113,0-0.208-0.085-0.218-0.199c-0.079-0.86-0.121-1.63-0.121-2.227
						c-0.169-1.169-3.058-2.568-6.116-4.05c-3.677-1.782-7.845-3.8-9.556-6.367c-0.869-1.304-1.896-4.625-3.316-9.221
						c-3.194-10.331-8.02-25.944-16.212-35.239c-0.048-0.054-0.066-0.129-0.048-0.199c0.018-0.07,0.068-0.126,0.137-0.151
						c5.989-2.204,20.722-5.74,28.168,8.998l0,0c7.63,15.099,7.534,33.927,7.482,44.042c-0.008,1.738-0.016,3.239,0.019,4.388
						c0.003,0.118-0.087,0.218-0.205,0.225C186.884,84.814,186.88,84.814,186.876,84.814z M151.876,27.463
						c8.126,9.392,12.913,24.88,16.091,35.158c1.357,4.39,2.429,7.857,3.262,9.108c1.645,2.468,5.757,4.459,9.384,6.216
						c2.824,1.368,5.16,2.5,6.019,3.654c0.002-0.447,0.003-0.914,0.006-1.4c0.051-10.078,0.147-28.837-7.434-43.842l0,0
						C172.036,22.172,157.934,25.298,151.876,27.463z"/>
				</g>
			</g>
			<g style="opacity:0.63;">
				<path style="fill:#4D3F44;" d="M179.399,36.257c-7.306-14.46-21.594-11.211-27.897-8.891
					c11.846,13.441,16.762,40.307,19.546,44.483c3.181,4.772,15.311,7.755,15.708,10.538c0,0.585,0.04,1.341,0.12,2.207
					C186.64,76.845,188.333,53.939,179.399,36.257z"/>
			</g>
			<g style="opacity:0.63;">
				<path style="fill:#4D3F44;" d="M186.865,76.619c-0.423-0.092-0.847-0.243-1.269-0.477c-1.859-1.034-2.845-3.15-3.493-5.08
					c-0.695-2.072-1.052-4.229-1.499-6.363c-1.069-5.101-1.254-10.415-3.198-15.308c-1.093-2.751-2.75-5.103-4.604-7.387
					c-1.423-1.752-2.761-3.623-3.709-5.68c-1.021-2.216-1.814-5.291-0.013-7.347c0.615-0.702,1.409-1.153,2.274-1.44
					c-7.107-3.868-15.437-1.796-19.853-0.171c11.846,13.441,16.762,40.307,19.546,44.483c3.181,4.772,15.311,7.755,15.708,10.538
					c0,0.585,0.04,1.341,0.12,2.207C186.819,82.725,186.874,79.967,186.865,76.619z"/>
			</g>
		</g>
		<g>
			<path style="fill:#FB9E6B;" d="M244.5,78.819c0,0,4.534-0.887,17.82-1.785c13.286-0.898,18.948-2.321,20.631-2.659
				c1.683-0.339,2.388,1.631,0.96,7.84c-1.428,6.21-5.98,24.275-20.87,33.195c-1.283,3.606-5.033,4.927-5.033,4.927
				S261.609,93.966,244.5,78.819z"/>
			<path style="opacity:0.45;fill:#E26D46;" d="M264.063,108.97c7.281,0.606,8.892-7.641,11.611-12.186
				c3.376-4.532,5.339-10.669,6.087-15.253c0.749-4.584-2.143-4.511-7.816-3.442c-5.672,1.069-12.531,2.377-15.463,4.421
				c-2.932,2.044-2.397,4.88-5.602,0.873s3.193-5.258,7.874-6.019c0.528-0.086,1.031-0.199,1.513-0.328
				c-13.245,0.897-17.767,1.781-17.767,1.781c17.108,15.147,13.508,41.518,13.508,41.518s3.751-1.322,5.033-4.927
				c0.945-0.566,1.848-1.17,2.712-1.805C262.533,113.298,262.229,108.619,264.063,108.97z"/>
			<g>
				<path style="fill:#A1332E;" d="M275.274,95.078c5.496-7.106,6.277-15.889,4.564-16.343c-1.714-0.453-6.494,1.127-17.54,4.072
					c-5.081,1.771-6.599,7.781-6.95,12.743c1.193,3.469,1.931,6.91,2.373,10.075c2.6,0.782,6.636,1.822,9.023,1.572
					C270.476,106.807,271.883,99.34,275.274,95.078z"/>
			</g>
			<g>
				<path style="fill:#DF5F52;" d="M261.419,106.607c1.926,0.434,3.913,0.738,5.325,0.59c3.732-0.391,5.139-7.858,8.529-12.12
					c0.943-1.219,1.744-2.487,2.42-3.755c0.433-2.414,0.586-5.222-0.234-7.591C265.561,88.502,259.804,92.766,261.419,106.607z"/>
			</g>
			<g>
				<path style="fill:#662025;" d="M257.637,105.862c-0.088-0.031-0.152-0.109-0.165-0.202c-0.493-3.531-1.288-6.905-2.362-10.029
					c-0.011-0.032-0.016-0.066-0.013-0.1c0.348-4.903,1.865-11.132,7.118-12.963c2.531-0.676,4.72-1.275,6.622-1.796
					c6.644-1.819,9.676-2.649,11.065-2.281c0.329,0.088,0.597,0.388,0.767,0.887c0.443,1.307,0.241,3.819-0.527,6.556
					c-0.655,2.333-1.997,5.841-4.669,9.296c-0.001,0.001-0.002,0.002-0.003,0.003c-1.274,1.602-2.263,3.66-3.22,5.651
					c-1.558,3.243-3.03,6.306-5.48,6.563c-2.372,0.248-6.27-0.723-9.122-1.582C257.644,105.865,257.64,105.864,257.637,105.862z
					 M255.602,95.517c1.06,3.093,1.849,6.427,2.345,9.914c2.329,0.694,6.414,1.764,8.77,1.517c2.171-0.227,3.583-3.167,5.079-6.28
					c0.968-2.015,1.969-4.099,3.279-5.745c4.716-6.098,5.838-13.255,5.116-15.382c-0.109-0.32-0.262-0.517-0.419-0.562
					c-1.258-0.333-4.448,0.54-10.803,2.28c-1.903,0.521-4.093,1.121-6.608,1.791C257.403,84.779,255.945,90.772,255.602,95.517z
					 M275.273,95.078l0.005,0.002L275.273,95.078z"/>
			</g>
			<path style="fill:#FB9E6B;" d="M175.998,91.297c0,0-2.68-2.528-0.1-7.766c-3.667-8.605-5.275-17.765,3.281-31.756
				c6.002-10.032,6.697-12.791,9.904-8.93c3.207,3.861,24.253,24.373,24.253,24.373S189.809,72.592,175.998,91.297z"/>
			<g style="opacity:0.45;">
				<path style="fill:#E26D46;" d="M199.657,53.743c2.001,3.526,9.224,9.667,5.946,9.601c-3.404-0.068-5.309,1.54-6.399-0.753
					c-2.967-7.722-10.465-18.753-13.167-17.047c-9.019,8.22-9.739,21.993-9.739,27.378c-0.001,5.385,2.666,4.979,4.218,5.532
					c1.552,0.552-2.046,4.66-3.82,2.385c-6.28-11.392,2.482-29.064,2.482-29.064c-8.556,13.99-6.947,23.151-3.281,31.756
					c-2.579,5.238,0.1,7.766,0.1,7.766c13.811-18.706,37.337-24.078,37.337-24.078S206.237,60.3,199.657,53.743z"/>
			</g>
			<g>
				<path style="fill:#A1332E;" d="M192.138,52.785c-4.03-5.845-4.433-7.573-8.378-2.528c-5.596,8.417-6.303,16.764-5.922,23.008
					c0.265,4.339,6.083,5.956,9.61,6.539c2.67-2.034,5.379-3.775,7.99-5.252C200.901,65.39,195.675,57.915,192.138,52.785z"/>
			</g>
			<g>
				<path style="fill:#DF5F52;" d="M184.42,55.276c-4.063,7.069-4.318,16.896-4.222,21.903c2.077,1.52,5.091,2.268,7.251,2.625
					c1.614-1.23,3.24-2.34,4.853-3.362C194.617,66.16,190.359,59.811,184.42,55.276z"/>
			</g>
			<g>
				<path style="fill:#662025;" d="M183.281,79.018c-2.825-1.005-5.51-2.745-5.693-5.738c-0.533-8.748,1.418-16.325,5.964-23.163
					c1.787-2.287,2.811-3.119,3.787-3.085c1.239,0.042,2.205,1.474,3.961,4.073c0.32,0.474,0.667,0.987,1.046,1.536l0.065,0.094
					c3.487,5.057,8.756,12.7,3.245,21.945c-0.022,0.037-0.054,0.068-0.092,0.09c-2.818,1.595-5.497,3.356-7.961,5.233
					c-0.055,0.042-0.125,0.059-0.193,0.048C186.207,79.854,184.725,79.532,183.281,79.018z M187.662,47.603
					c-0.114-0.041-0.227-0.063-0.34-0.067c-0.78-0.027-1.723,0.779-3.362,2.876c-4.472,6.728-6.396,14.203-5.87,22.837
					c0.252,4.133,5.88,5.711,9.294,6.289c2.442-1.854,5.09-3.594,7.873-5.172c5.291-8.941,0.35-16.109-3.261-21.345l-0.065-0.094
					l0,0c-0.379-0.551-0.727-1.065-1.049-1.54C189.46,49.281,188.535,47.913,187.662,47.603z M195.439,74.552l0.005,0.002
					L195.439,74.552z"/>
			</g>
			<path style="fill:#FBF6DD;" d="M221.895,66.735c0,0-1.963-1.979-5.049-3.503c14.812,1.855,54.197,22.505,40.438,66.162
				c0,0,2.775,1.165,5.089,1.633c-1.996,2.125-6.422,1.614-6.422,1.614s4.306,1.49,5.717,2.429
				c-1.534,0.836-5.533,2.468-5.533,2.468s2.26,0.804,3.818,0.922c-4.814,2.288-7.987,3.849-7.987,3.849l2.299,0.719
				c0,0-19.617,15.589-51.985,3.007c-27.569-10.716-36.391-31.613-36.391-31.613s0.832,1.116,1.959,1.789
				c0,0-3.305-5.684-3.803-9.276c0,0,1.803,1.461,3.015,1.892c-3.435-5.32-3.731-6.791-3.731-6.791s2.183,0.776,4.902,1.197
				c-3.441-3-4.057-4.722-4.057-4.722s3.465,1.779,5.923,1.014C174.93,87.859,192.215,61.747,221.895,66.735z"/>
			<path style="opacity:0.91;fill:#FFFFFF;" d="M210.585,122.106c-1.353,3.803-5.739,5.717-9.797,4.274
				c-4.057-1.443-6.25-5.697-4.897-9.5c1.353-3.804,5.739-5.717,9.797-4.274C209.746,114.049,211.938,118.302,210.585,122.106z"/>
			<path style="opacity:0.91;fill:#FFFFFF;" d="M226.351,127.715c-1.353,3.804-5.739,5.717-9.797,4.274
				c-4.058-1.443-6.25-5.697-4.897-9.501c1.353-3.804,5.739-5.717,9.797-4.274C225.512,119.658,227.704,123.911,226.351,127.715z"/>
			<path style="opacity:0.91;fill:#FFFFFF;" d="M215.734,131.906c-1.353,3.804-5.739,5.717-9.797,4.274
				c-4.057-1.443-6.25-5.697-4.896-9.501c1.353-3.804,5.739-5.717,9.796-4.274S217.087,128.103,215.734,131.906z"/>
			<path style="fill:#D6B498;" d="M208.519,115.266c0,0-1.391,0.213,0.069,1.795c1.46,1.582,2.135,2.53,1.24,5.044
				c-0.894,2.514-3.393,4.529-7.201,3.529c-3.808-1-6.692-3.355-7.289-5.162c-0.473,3.819,3.307,9.493,10.552,8.284
				c3.509-0.55,4.026,0.391,6.014,2.518c1.988,2.127,8.057,4.759,11.736,1.335c-3.828-0.415-12.668-2.708-11.937-8.222
				c0.691-3.541,1.728-4.592,3.954-4.462c2.226,0.129,3.076-1.462,0.507-2.754C213.595,115.877,208.519,115.266,208.519,115.266z"/>
			<path style="fill:#6F2325;" d="M211.492,119.395c0,0-1.489,8.419-8.621,7.299c-4.656-0.859-7.008-4.708-7.532-6.223
				c0.157,4.043,5.059,8.444,11.104,7.14c2.942-0.548,3.015-0.256,4.927,1.841c1.912,2.098,7.508,4.797,11.285,3.394
				c-4.413,0.202-14.47-1.946-11.241-11.555C211.414,121.291,211.988,119.771,211.492,119.395z"/>
			<g>
				<path style="fill:#FB9E6B;" d="M222.579,70.96c0.27,2.711,3.644-1.196,7.66-3.307c-1.381-0.68-2.737-1.282-4.049-1.808
					C224.684,66.801,222.36,68.757,222.579,70.96z"/>
				<path style="fill:#FB9E6B;" d="M173.079,101.27c-2.794-1.112-5.481-0.532-3.65,2.954c-2.374-0.963-3.041-1.082-0.115,3.976
					c-0.979,1.424-4.312,6.145,2.124,9.97c6.436,3.825,12.283,3.661,10.338-1.166c6.718,2.035,3.82-4.43,3.82-4.43
					s2.03,0.604,1.121-1.491c1.969,0.11,1.795-1.724,1.306-3.67c-0.436-1.736,13.714,9.317,18.722,2.534
					c3.587-4.857,0.505-12.147,0.915-12.499c5.038-4.319,6.606-7.525,2.183-15.2c3.092,2.152,3.395,6.818,4.336,5.75
					c1.611-2.162,0.838-8.468,0.838-8.468s2.051,1.922,2.877,4.53c0.826,2.608,1.483,3.037,2.821-4.186
					c1.597-9.811-9.203-10.763-9.203-10.763s4.728-1.646,9.089-1.113c-0.493-0.599-1.146-1.162-1.869-1.681
					c-21.28-2.072-35.785,11.949-43.492,23.673C174.705,91.157,173.486,94.484,173.079,101.27z"/>
				<g>
					<path style="fill:#9D2C20;" d="M199.332,93.131c-10.945-1.468-16.713,7.617-16.713,7.617s8.14-8.406,17.46-6.004
						c9.32,2.402,6.563,15.652,6.563,15.652C209.058,102.986,206.797,94.463,199.332,93.131z"/>
				</g>
				<path style="fill:#FB9E6B;" d="M229.596,74.812c2.761-1.809,5.301-2.928,6.983-3.559c-1.897-1.229-3.799-2.312-5.662-3.258
					c-0.855,0.503-1.81,1.205-2.718,2.169C225.749,72.766,226.33,76.951,229.596,74.812z"/>
				<path style="fill:#FB9E6B;" d="M241.411,125.697c-3.547,1.337-3.193,2.999-0.826,4.313c-5.404,0.913-6.134,3.961-1.723,5.176
					c-4.086,1.854-1.49,5.849,3.424,8.306c4.915,2.457,11.754-0.087,8.158-5.869c5.047,0.358,6.737-2.777,3.121-4.734
					c3.187-0.879,3.781-2.009,0.191-2.423c0,0,3.538-2.006,5.689-10.124c3.469-21.473-6.508-36.524-18.253-45.785
					c0.985,1.284,1.955,2.802,2.239,4.094c-3.048-2.414-11.253-0.844-14.424,7.835c-2.288,6.667,0.373,3.624,7.085-0.056
					c-3.793,3.887-4.508,4.962,1.605,2.732c-4.219,2.306-8.348,7.207-7.921,14.311c0.289,1.609-6.218,5.479-7.058,11.627
					L241.411,125.697z"/>
			</g>
			<g>
				<path style="fill:#9D2C20;" d="M239.459,107.253c7.06,2.604,9.206,10.466,9.857,14.781c0.845-4.594-2.297-13.821-10.771-16.081
					c-8.661-2.309-14.005,5.272-15.824,9.146C222.721,115.1,229.542,103.595,239.459,107.253z"/>
			</g>
			<g>
				<path style="opacity:0.56;fill:#CDA68D;" d="M261.157,134.888c-1.412-0.939-5.717-2.429-5.717-2.429s4.425,0.511,6.422-1.614
					c-2.314-0.469-5.089-1.633-5.089-1.633s-12.152,26.687-53.104,12.296c-40.952-14.391-34.084-42.164-34.084-42.164
					c-2.458,0.765-5.923-1.014-5.923-1.014s0.617,1.722,4.058,4.722c-2.719-0.421-4.902-1.197-4.902-1.197s0.296,1.472,3.731,6.791
					c-1.212-0.431-3.015-1.892-3.015-1.892c0.498,3.592,3.804,9.276,3.804,9.276c-1.126-0.674-1.959-1.79-1.959-1.79
					s8.822,20.897,36.391,31.613c32.368,12.581,51.985-3.007,51.985-3.007l-2.299-0.719c0,0,3.174-1.562,7.988-3.849
					c-1.558-0.118-3.818-0.922-3.818-0.922S259.624,135.724,261.157,134.888z"/>
			</g>
			<path style="fill:#D6B498;" d="M200.694,136.667c0,0,2.346,7.602,8.833,3.849C206.483,143.676,201.328,142.55,200.694,136.667z"
				/>
			<g>
				<path style="fill:#E9C8B5;" d="M206.241,111.524c0,0-1.307-0.355-4.855,1.25c-3.548,1.605-10.878,1.754-15.453-7.703
					c-1.359-2.689-3.715-3.196-3.715-3.196s5.768-9.085,16.713-7.617C206.396,95.591,208.657,104.113,206.241,111.524z"/>
				<path d="M193.73,113.258c-2.825-1.005-5.748-3.374-8.024-8.077c-1.282-2.537-3.519-3.054-3.542-3.06
					c-0.08-0.016-0.147-0.073-0.179-0.149c-0.031-0.076-0.024-0.162,0.02-0.232c0.058-0.092,5.981-9.203,16.959-7.731
					c2.858,0.511,5.149,2.089,6.634,4.568c2.079,3.472,2.409,8.341,0.882,13.025c-0.041,0.127-0.174,0.199-0.303,0.166
					c-0.022-0.005-1.322-0.287-4.688,1.236C199.608,113.854,196.724,114.323,193.73,113.258z M182.652,101.743
					c0.749,0.267,2.424,1.075,3.505,3.214c4.521,9.345,11.635,9.167,15.125,7.587c2.795-1.264,4.249-1.335,4.782-1.297
					c1.387-4.424,1.048-9.162-0.898-12.413c-1.408-2.351-3.58-3.848-6.28-4.329c-9.572-1.284-15.184,5.728-16.264,7.227
					C182.632,101.736,182.642,101.74,182.652,101.743z"/>
			</g>
			<path style="fill:#E9C8B5;" d="M187.789,99.533c2.914-0.41,5.997-0.133,8.731,0.987c2.452,1.004,4.556,2.666,6.241,4.698
				c1.485,1.791,2.653,3.81,3.589,5.946c2.228-7.324-0.076-15.594-7.42-16.905c-8.593-1.152-13.993,4.198-15.918,6.552
				C184.559,100.204,186.165,99.762,187.789,99.533z"/>
			<g>
				<path style="fill:#E9C8B5;" d="M222.382,116.053c0,0,1.575,1.773,4.095,5.536c2.52,3.763,9.408,7.647,15.602,3.565
					c3.624-2.129,5.763-2.251,6.839-1.867c1.043-4.481-2.051-14.072-10.712-16.381C229.545,104.598,224.201,112.179,222.382,116.053
					z"/>
				<path d="M232.519,126.449c-2.677-0.952-4.947-2.773-6.251-4.72c-2.48-3.701-4.059-5.492-4.074-5.509
					c-0.067-0.075-0.082-0.183-0.04-0.274c2.615-5.567,8.404-11.338,16.116-9.282c9.003,2.403,11.918,12.278,10.893,16.681
					c-0.016,0.07-0.062,0.129-0.124,0.164c-0.063,0.035-0.137,0.04-0.205,0.016c-0.81-0.288-2.748-0.432-6.628,1.847
					C238.988,127.492,235.501,127.51,232.519,126.449z M222.68,116.012c0.401,0.471,1.877,2.257,4.006,5.437
					c2.639,3.941,9.409,7.348,15.254,3.496c3.696-2.171,5.77-2.223,6.788-1.976c0.816-4.36-2.076-13.551-10.587-15.819
					c-3.702-0.987-7.153-0.244-10.257,2.209C225.009,111.631,223.328,114.667,222.68,116.012z"/>
			</g>
			<path style="fill:#E9C8B5;" d="M226.77,113.883c1.234-0.197,2.486-0.307,3.736-0.32c1.615-0.016,3.243,0.21,4.818,0.56
				c3.462,0.768,6.782,2.273,9.589,4.447c1.563,1.21,2.912,2.609,4.111,4.128c0.666-4.682-2.518-13.578-10.818-15.791
				c-7.837-2.09-12.957,3.92-15.209,7.952C224.213,114.398,225.489,114.088,226.77,113.883z"/>
			<path style="fill:#BB5635;" d="M185.186,96.127c1.164-1.915,3.055-3.35,5.115-4.286c1.035-0.476,2.133-0.806,3.249-1.033
				c1.119-0.209,2.256-0.317,3.39-0.316c1.136,0.014,2.259,0.088,3.384,0.289c1.151,0.202,2.257,0.641,3.215,1.302
				c1.928,1.316,3.175,3.433,3.545,5.621c-0.756-2.079-2.131-3.908-3.954-4.979c-0.909-0.528-1.921-0.887-2.956-1.025
				c-1.064-0.134-2.157-0.22-3.234-0.208c-1.08,0.003-2.158,0.076-3.218,0.262c-1.065,0.16-2.105,0.453-3.117,0.822
				C188.597,93.341,186.685,94.485,185.186,96.127z"/>
			<path style="fill:#BB5635;" d="M229.989,104.979c0.81-0.864,1.8-1.557,2.871-2.107c1.074-0.541,2.276-0.886,3.517-0.925
				c1.244-0.063,2.499,0.28,3.6,0.797c1.106,0.526,2.124,1.195,3.066,1.948c1.854,1.538,3.475,3.365,4.65,5.466
				c0.615,1.032,1.067,2.158,1.419,3.299c0.335,1.152,0.48,2.352,0.447,3.531c-0.336-2.343-1.263-4.5-2.537-6.421
				c-0.3-0.491-0.669-0.938-0.999-1.408c-0.368-0.442-0.716-0.902-1.117-1.315c-0.757-0.868-1.613-1.641-2.496-2.369
				c-0.883-0.731-1.843-1.362-2.846-1.874c-1.002-0.525-2.071-0.836-3.186-0.871c-1.111-0.028-2.249,0.179-3.322,0.593
				C231.979,103.727,230.942,104.284,229.989,104.979z"/>
			<path style="fill:#D6B498;" d="M209.023,111.528c1.04-0.305,2.143-0.381,3.231-0.317c1.092,0.057,2.177,0.293,3.203,0.685
				c1.019,0.4,2.007,0.912,2.85,1.614c0.444,0.321,0.82,0.72,1.212,1.095c0.199,0.185,0.352,0.414,0.526,0.621
				c0.171,0.21,0.337,0.424,0.498,0.639c-0.795-0.733-1.57-1.467-2.464-2.042c-0.868-0.607-1.817-1.081-2.799-1.456
				c-0.98-0.388-2.014-0.627-3.063-0.772c-0.525-0.073-1.056-0.112-1.589-0.121C210.095,111.453,209.561,111.477,209.023,111.528z"
				/>
			<path style="fill:#F47067;" d="M213.015,115.263c0,0-4.039-1.366-4.844-0.097c-0.657,1.251,2.646,1.507,2.631,4.33
				c-0.091,2.442,1.078,1.939,1.816,0.858c0.738-1.081,1.378-1.489,2.996-1.267C217.232,119.309,220.318,117.79,213.015,115.263z"/>
			<path style="fill:#F47067;" d="M216.612,118.658c-0.685-0.029-1.627-0.528-2.312-0.479c-0.586,0.042-1.388,0.695-1.978,0.612
				c-0.561-0.079-0.434-0.649-0.746-1.081c-0.191-0.264-0.374-0.54-0.63-0.744c-0.301-0.24-0.662-0.385-1.019-0.522
				c-0.575-0.221-1.241-0.45-1.656-0.932c-0.066-0.076-0.109-0.15-0.142-0.221c-0.379,1.146,2.689,1.481,2.675,4.206
				c-0.091,2.442,1.078,1.939,1.816,0.858c0.738-1.081,1.378-1.489,2.996-1.267c0.617,0.085,1.446-0.085,1.832-0.466
				C217.171,118.668,216.883,118.67,216.612,118.658z"/>
			<path style="fill:#662025;" d="M210.511,116.883c-0.511-0.598-1.26-0.659-2.006-0.717c0.586,0.513,1.622,1.066,2.073,2.164
				C210.805,117.854,210.891,117.329,210.511,116.883z"/>
			<path style="fill:#662025;" d="M214.749,118.461c-0.27-0.131-0.49-0.166-0.737,0.029c-0.191,0.15-0.321,0.366-0.416,0.587
				c-0.045,0.103-0.084,0.216-0.116,0.333c0.507-0.355,1.133-0.461,2.134-0.323c0.157,0.021,0.327,0.026,0.501,0.016
				C215.645,118.918,215.186,118.673,214.749,118.461z"/>
			<g>
				<g>
					<path style="fill:#D6B498;" d="M221.235,129.535c-0.096,0.269-0.392,0.41-0.661,0.314c-0.269-0.096-0.41-0.392-0.314-0.661
						c0.096-0.269,0.392-0.41,0.661-0.314C221.19,128.97,221.331,129.266,221.235,129.535z"/>
					<path style="fill:#D6B498;" d="M223.944,128.481c-0.096,0.27-0.392,0.41-0.661,0.314c-0.269-0.096-0.41-0.392-0.314-0.661
						c0.096-0.269,0.392-0.41,0.661-0.314C223.899,127.915,224.039,128.212,223.944,128.481z"/>
					<path style="fill:#D6B498;" d="M223.135,125.613c-0.096,0.269-0.392,0.41-0.661,0.314c-0.269-0.096-0.41-0.392-0.314-0.661
						c0.096-0.269,0.392-0.41,0.661-0.314C223.09,125.047,223.231,125.343,223.135,125.613z"/>
				</g>
				<path style="fill:#C0C0C0;" d="M220.747,129.362c3.418,0.657,6.778,1.594,10.089,2.675c3.307,1.094,6.554,2.379,9.712,3.861
					c3.14,1.514,6.201,3.221,9.033,5.267c1.405,1.035,2.777,2.119,4.04,3.325c1.251,1.215,2.433,2.505,3.458,3.911
					c-2.223-2.679-4.869-4.959-7.722-6.919c-2.854-1.963-5.887-3.659-9.025-5.129c-3.12-1.511-6.353-2.782-9.621-3.95
					c-1.635-0.582-3.285-1.124-4.947-1.626C224.106,130.259,222.433,129.789,220.747,129.362z"/>
				<path style="fill:#C0C0C0;" d="M223.456,128.307c3.946,0.369,7.855,1.089,11.715,1.998c3.857,0.927,7.66,2.096,11.361,3.54
					c3.685,1.475,7.28,3.222,10.601,5.412c1.648,1.111,3.25,2.295,4.724,3.629c1.459,1.349,2.824,2.799,4.01,4.387
					c-2.537-3.048-5.611-5.588-8.944-7.691c-3.336-2.104-6.898-3.839-10.576-5.269c-3.663-1.474-7.448-2.63-11.27-3.633
					c-1.912-0.499-3.839-0.944-5.778-1.336C227.364,128.939,225.416,128.59,223.456,128.307z"/>
				<path style="fill:#C0C0C0;" d="M222.647,125.439c3.826,0.502,7.621,1.231,11.388,2.076c3.768,0.846,7.495,1.874,11.178,3.043
					c3.666,1.22,7.292,2.59,10.758,4.314c3.439,1.743,6.807,3.783,9.485,6.584c-1.402-1.327-2.959-2.471-4.593-3.482
					c-1.628-1.021-3.322-1.936-5.062-2.753c-1.744-0.807-3.507-1.575-5.301-2.269c-1.797-0.687-3.613-1.321-5.443-1.915
					c-3.656-1.204-7.372-2.222-11.111-3.146c-1.869-0.467-3.747-0.898-5.631-1.303C226.434,126.169,224.544,125.792,222.647,125.439
					z"/>
			</g>
			<g>
				<g>
					<path style="fill:#D6B498;" d="M199.521,121.811c-0.096,0.269,0.045,0.566,0.314,0.661c0.269,0.096,0.566-0.045,0.661-0.314
						c0.096-0.269-0.045-0.566-0.314-0.661C199.913,121.401,199.617,121.542,199.521,121.811z"/>
					<path style="fill:#D6B498;" d="M198.087,119.283c-0.096,0.27,0.045,0.565,0.314,0.661c0.269,0.096,0.565-0.045,0.661-0.314
						s-0.045-0.565-0.314-0.661C198.479,118.873,198.183,119.013,198.087,119.283z"/>
					<path style="fill:#D6B498;" d="M200.526,117.57c-0.096,0.269,0.045,0.565,0.314,0.661c0.269,0.096,0.565-0.045,0.661-0.314
						c0.096-0.269-0.045-0.566-0.314-0.661C200.917,117.159,200.622,117.3,200.526,117.57z"/>
				</g>
				<path style="fill:#C0C0C0;" d="M200.009,121.985c-1.577-0.734-3.171-1.426-4.783-2.073c-1.606-0.661-3.228-1.282-4.863-1.864
					c-3.271-1.158-6.58-2.214-9.954-3.013c-3.362-0.842-6.785-1.442-10.237-1.723c-3.45-0.282-6.941-0.186-10.357,0.488
					c1.684-0.442,3.414-0.696,5.151-0.848c1.74-0.138,3.489-0.111,5.232-0.026c3.488,0.202,6.939,0.812,10.33,1.621
					c3.384,0.845,6.713,1.9,9.968,3.14C193.747,118.94,196.945,120.335,200.009,121.985z"/>
				<path style="fill:#C0C0C0;" d="M198.575,119.456c-1.698-1.019-3.429-1.979-5.186-2.887c-1.75-0.921-3.525-1.793-5.323-2.614
					c-3.597-1.635-7.262-3.13-11.033-4.3c-3.755-1.214-7.612-2.118-11.528-2.594c-3.913-0.475-7.9-0.446-11.792,0.314
					c1.922-0.482,3.897-0.744,5.879-0.869c1.986-0.103,3.976-0.01,5.955,0.17c3.959,0.4,7.848,1.315,11.637,2.499
					c3.782,1.218,7.469,2.714,11.045,4.431C191.797,115.339,195.283,117.251,198.575,119.456z"/>
				<path style="fill:#C0C0C0;" d="M201.013,117.743c-1.693-0.924-3.397-1.826-5.12-2.689c-1.716-0.877-3.445-1.728-5.188-2.546
					c-3.483-1.645-7.007-3.203-10.602-4.578c-1.794-0.695-3.603-1.351-5.43-1.952c-1.829-0.595-3.681-1.113-5.543-1.589
					c-1.865-0.465-3.756-0.826-5.663-1.062c-1.905-0.247-3.835-0.344-5.76-0.201c3.845-0.48,7.744,0.065,11.512,0.886
					c3.776,0.853,7.453,2.08,11.066,3.449c3.594,1.42,7.133,2.977,10.589,4.7C194.327,113.885,197.73,115.716,201.013,117.743z"/>
			</g>
			<g>
				<path style="fill:#270009;" d="M198.931,94.258c-10.945-1.468-16.713,7.617-16.713,7.617s8.14-8.406,17.46-6.004
					c9.32,2.402,6.563,15.652,6.563,15.652C208.657,104.113,206.396,95.591,198.931,94.258z"/>
			</g>
			<g>
				<path style="fill:#270009;" d="M239.12,108.206c7.06,2.604,9.206,10.465,9.857,14.781c0.845-4.594-2.297-13.821-10.771-16.081
					c-8.661-2.309-14.005,5.272-15.824,9.146C222.382,116.053,229.203,104.548,239.12,108.206z"/>
			</g>
			<g>
				<path style="fill:#67393B;" d="M205.762,107.124c-1.736,4.881-7.101,7.43-11.982,5.694c-4.881-1.736-7.43-7.101-5.694-11.982
					c1.736-4.881,7.101-7.43,11.982-5.694C204.949,96.879,207.498,102.243,205.762,107.124z"/>
				<path style="fill:#22030A;" d="M204.73,106.645c-1.527,4.292-6.243,6.533-10.535,5.006c-4.292-1.526-6.533-6.243-5.006-10.535
					c1.527-4.292,6.243-6.533,10.535-5.007C204.015,97.637,206.257,102.353,204.73,106.645z"/>
				<path d="M202.645,105.903c-1.117,3.14-4.568,4.78-7.708,3.663c-3.14-1.117-4.78-4.568-3.663-7.708
					c1.117-3.14,4.568-4.78,7.708-3.663C202.122,99.312,203.762,102.763,202.645,105.903z"/>
				<path style="fill:#67393B;" d="M203.734,104.241c0,0-1.313,6.921-8.619,5.307C199.156,112.955,204.53,108.464,203.734,104.241z"
					/>
				<path style="fill:#F8EFDA;" d="M197.561,100.049c-0.559,1.571-2.286,2.392-3.857,1.833c-1.571-0.559-2.392-2.286-1.833-3.857
					c0.559-1.571,2.286-2.392,3.857-1.833C197.299,96.751,198.12,98.478,197.561,100.049z"/>
				<path style="fill:#F8EFDA;" d="M203.002,111.302c-0.271,0.762-1.109,1.161-1.872,0.89c-0.763-0.271-1.161-1.109-0.89-1.872
					c0.271-0.763,1.109-1.161,1.872-0.89C202.875,109.701,203.273,110.54,203.002,111.302z"/>
			</g>
			<g>
				<path style="fill:#DE633E;" d="M174.665,91.506c0,0,7.146,1.593,7.092,6.083c-0.21,3.426-5.644,2.857-8.514,2.252
					C173.411,96.697,174.665,91.506,174.665,91.506z"/>
				<path style="fill:#DE633E;" d="M184.277,90.149c0,0,1.478,3.637,3.135,1.681c1.657-1.956-0.188-4.083-1.693-3.826
					C184.213,88.26,184.057,89.336,184.277,90.149z"/>
				<path style="fill:#DE633E;" d="M259.246,121.154c0,0-5.331-1.959-7.529,1.423c-1.914,3.11,3.993,5.895,3.993,5.895
					S258.467,124.916,259.246,121.154z"/>
				<path style="fill:#DE633E;" d="M253.155,112.773c0,0-2.2,1.641-0.871,2.797c1.329,1.156,3.808-0.572,3.393-2.025
					C255.261,112.093,254.013,112.457,253.155,112.773z"/>
			</g>
			<path style="fill:#F47067;" d="M209.634,114.943c0,0,1.397,0.497,2.369,1.367c0.972,0.87,1.552,0.552,2.819,0.595
				c1.267,0.043,2.291,0.932,2.291,0.932s-1.632,0.002-2.936,0.063c-1.304,0.061-1.907,1.594-2.379-0.03
				C211.327,116.244,208.131,114.583,209.634,114.943z"/>
			<path style="fill:#FBF6DD;" d="M240.65,75.225c0,0-10.224-7.881-21.367-10.956C226.94,65.216,236.51,70.495,240.65,75.225z"/>
			<path style="fill:#FB9E6B;" d="M203.189,60.599c0.087,0.245-6.931-9.45-13.309-15.027
				C193.779,47.787,201.348,55.442,203.189,60.599z"/>
			<path style="fill:#FB9E6B;" d="M258.542,80.286c0,0,14.351-4.204,22.836-3.549C277.948,74.334,261.274,78.007,258.542,80.286z"/>
			<g>
				<path style="opacity:0.75;fill:#E26D46;" d="M202.277,68.049l0.022-0.039c-12.51,3.988-21.533,13.575-27.059,21.982
					c-0.186,0.404-0.454,1.076-0.742,2.055C187.114,73.336,202.277,68.049,202.277,68.049z"/>
			</g>
			<g>
				<path style="opacity:0.75;fill:#E26D46;" d="M258.238,124.007c0.427-1.056,0.839-2.269,1.21-3.666
					c2.264-14.016-1.202-25.293-7.147-34.012C256.624,95.142,261.452,109.211,258.238,124.007z"/>
			</g>
			<g>
				<path style="fill:#67393B;" d="M244.999,119.934c-1.792,5.039-7.33,7.67-12.369,5.878c-5.039-1.792-7.67-7.33-5.878-12.369
					c1.792-5.039,7.33-7.67,12.369-5.878C244.16,109.358,246.791,114.895,244.999,119.934z"/>
				<path style="fill:#22030A;" d="M244.077,119.457c-1.602,4.503-6.551,6.855-11.055,5.253c-4.503-1.602-6.855-6.551-5.253-11.055
					c1.602-4.503,6.551-6.855,11.054-5.253C243.327,110.004,245.679,114.954,244.077,119.457z"/>
				<path d="M241.778,118.639c-1.15,3.234-4.704,4.923-7.938,3.772c-3.234-1.15-4.923-4.705-3.773-7.939
					c1.15-3.234,4.705-4.923,7.939-3.773C241.24,111.851,242.929,115.405,241.778,118.639z"/>
				<path style="fill:#67393B;" d="M241.898,118.085c0,0-1.286,6.78-8.443,5.199C237.414,126.622,242.678,122.222,241.898,118.085z"
					/>
				<path style="fill:#F8EFDA;" d="M235.012,112.139c-0.548,1.539-2.239,2.343-3.778,1.796c-1.539-0.548-2.343-2.239-1.796-3.778
					c0.548-1.539,2.239-2.343,3.778-1.796C234.756,108.908,235.56,110.6,235.012,112.139z"/>
				<path style="fill:#F8EFDA;" d="M240.973,124.324c-0.266,0.747-1.087,1.137-1.833,0.871c-0.747-0.266-1.137-1.087-0.871-1.834
					s1.087-1.137,1.834-0.871C240.848,122.757,241.238,123.577,240.973,124.324z"/>
			</g>
		</g>
		<g>
			<path style="fill:#F6F8EE;" d="M73.36,43.909c0,0,9.402-17.422,31.801-23.505c22.399-6.084,46.043-5.254,58.625,15.762
				c9.264,15.347,8.434,25.303,9.955,33.737c1.521,8.434,7.605,15.348,18.528,16.73c-3.457,2.627-8.711,0.968-8.711,0.968
				s6.913,4.563-1.106,15.901c-8.019,11.338-10.785,12.582-14.656,22.399c-3.872,9.817-9.126,19.496-21.57,21.017
				c-12.444,1.521-25.718-5.254-34.29-8.434c-8.572-3.18-30.557-6.913-31.248-17.007c-1.659,1.798-1.383,3.871-1.383,3.871
				s-4.01-1.383-0.968-5.116c-2.351,0.415-5.807,0.415-8.711-1.936c4.286,0,7.881-8.849,4.839-18.251
				C71.425,90.643,60.363,67.138,73.36,43.909z"/>
			<path style="fill:#C7C7C3;" d="M142.572,147.353c-9.215,0-18.677-3.836-25.813-6.73c-1.749-0.709-3.401-1.379-4.899-1.934
				c-1.793-0.665-4.13-1.342-6.838-2.126c-9.908-2.867-23.398-6.772-24.498-14.55c-1.207,1.596-1.004,3.289-1.002,3.307
				c0.009,0.075-0.021,0.15-0.079,0.198c-0.06,0.048-0.139,0.062-0.209,0.038c-0.072-0.024-1.745-0.617-2.163-2.086
				c-0.25-0.879,0.006-1.865,0.762-2.936c-2.375,0.327-5.585,0.168-8.345-2.066c-0.072-0.058-0.1-0.155-0.068-0.243
				c0.031-0.087,0.114-0.146,0.206-0.146c1.193,0,2.35-0.723,3.345-2.092c2.141-2.943,3.456-9.165,1.285-15.873
				c-0.334-1.033-0.759-2.221-1.252-3.596c-4.001-11.168-11.448-31.958,0.163-52.713c0.137-0.252,9.753-17.586,31.936-23.611
				c19.374-5.262,45.313-6.782,58.87,15.861c7.334,12.151,8.38,21.076,9.219,28.248c0.229,1.949,0.444,3.791,0.764,5.563
				c1.669,9.255,8.354,15.288,18.339,16.552c0.088,0.011,0.161,0.075,0.184,0.16c0.023,0.086-0.008,0.177-0.079,0.231
				c-2.673,2.032-6.322,1.587-8.002,1.232c0.673,0.686,1.625,1.961,1.995,3.928c0.625,3.323-0.642,7.247-3.764,11.661
				c-2.572,3.636-4.642,6.284-6.305,8.411c-3.559,4.552-5.707,7.3-8.327,13.942c-3.98,10.093-9.369,19.641-21.747,21.153
				C145.034,147.284,143.805,147.353,142.572,147.353z M80.689,121.258c0.024,0,0.049,0.004,0.073,0.012
				c0.082,0.029,0.139,0.104,0.145,0.191c0.536,7.821,14.235,11.786,24.237,14.681c2.716,0.786,5.061,1.465,6.869,2.135
				c1.504,0.558,3.159,1.229,4.911,1.939c8.496,3.445,19.074,7.731,29.277,6.483c12.15-1.485,17.463-10.913,21.393-20.88
				c2.643-6.702,4.806-9.468,8.389-14.051c1.66-2.123,3.726-4.766,6.292-8.394c3.047-4.308,4.289-8.115,3.693-11.315
				c-0.546-2.93-2.508-4.264-2.528-4.277c-0.092-0.06-0.124-0.178-0.077-0.277s0.161-0.146,0.263-0.114
				c0.05,0.016,4.74,1.455,8.056-0.619c-9.877-1.442-16.48-7.551-18.154-16.832c-0.322-1.786-0.538-3.633-0.768-5.589
				c-0.835-7.13-1.874-16.004-9.16-28.073c-13.416-22.41-39.153-20.886-58.38-15.664c-22.045,5.988-31.572,23.224-31.666,23.398
				c0,0.001-0.001,0.002-0.002,0.003c-11.516,20.583-4.112,41.25-0.133,52.353c0.494,1.379,0.92,2.569,1.257,3.609
				c2.23,6.891,0.93,13.135-1.348,16.266c-0.924,1.269-1.991,2.028-3.117,2.222c2.745,1.963,5.886,1.939,8.09,1.551
				c0.084-0.015,0.179,0.026,0.226,0.105c0.046,0.079,0.038,0.178-0.02,0.249c-0.915,1.123-1.256,2.125-1.015,2.976
				c0.255,0.899,1.111,1.43,1.577,1.66c-0.004-0.7,0.154-2.264,1.46-3.678C80.57,121.283,80.629,121.258,80.689,121.258z
				 M73.36,43.909h0.005H73.36z"/>
		</g>
		<path style="fill:#CFC8C1;" d="M152.509,142.248c-2.172,0.873-4.458,1.574-6.778,1.915c-2.909,0.427-5.884,0.274-8.768-0.264
			c-5.951-1.111-11.504-3.674-16.954-6.219c-4.152-1.939-8.28-3.934-12.71-5.154c-3.667-1.01-7.382-1.841-11.004-3.01
			c-6.471-2.088-14.029-5.77-14.806-13.262c-1.25,0.193-2.537,0.23-3.741,0.606c-0.411,0.129-1.184-0.417-0.944-0.879
			c1.981-3.807,2.622-8.032,2.119-12.277c-0.487-4.113-1.955-7.957-3.308-11.84c-2.033-5.837-4.075-11.821-4.564-18.023
			c-0.464-5.875,0.756-11.582,3.233-16.909c0.771-1.658,1.637-3.279,2.587-4.842c0.988-1.624,1.791-3.266,2.273-5.113
			c0.842-3.227,0.786-6.594,1.344-9.868c0.175-1.027,0.424-2.046,0.753-3.038c-5.409,5.272-7.88,9.838-7.88,9.838
			c-12.997,23.229-1.936,46.734,1.106,56.136c3.042,9.402-0.553,18.251-4.839,18.251c2.904,2.351,6.36,2.351,8.711,1.936
			c-3.042,3.733,0.968,5.116,0.968,5.116s-0.276-2.074,1.383-3.871c0.691,10.093,22.676,13.827,31.248,17.007
			c8.573,3.18,21.846,9.955,34.29,8.434c7.708-0.942,12.654-5.017,16.225-10.313C159.361,138.865,156.068,140.818,152.509,142.248z"
			/>
		<path style="fill:#CFC8C1;" d="M128.113,104.53c-0.466,0.156-6.528,10.725,15.387,15.232c8.238,2.021,2.021,10.88-10.88,10.569
			c-12.901-0.311-19.584-6.683-21.915-8.704c2.798-0.933,4.041,0.155,4.041,0.155s-4.352-4.974-9.481-1.554
			c-5.129,3.419-1.554,7.46,0.155,4.974s3.108,0.933,10.88,5.285c7.771,4.352,19.739,6.839,27.977,2.021
			c8.393,4.041,12.279-2.331,13.522-6.683c6.528,0.622,13.988-4.974,14.455-21.449c3.264,2.331,4.041-2.331,1.71-4.507
			c-2.331-2.176-9.637,4.663-4.663,3.73c-1.088,11.968-5.285,21.449-16.475,15.854c7.15-2.331,15.185-11.498,10.313-19.893
			C158.266,91.164,128.113,104.53,128.113,104.53z"/>
		<path style="fill:#CFC8C1;" d="M86.999,97.794c0,0,16.592,10.903,36.028-5.452c0.898-29.068-10.666-50.013-26.784-48.591
			C80.125,45.173,72.54,71.72,86.999,97.794z"/>
		<path style="fill:#CFC8C1;" d="M153.542,86.589c0,0-6.77-1.143-10.845-21.514c-4.074-20.371,6.402-25.901,13.096-27.647
			c6.693-1.746,18.526,14.197,16.247,40.565C167.725,86.61,153.542,86.589,153.542,86.589z"/>
		<path style="fill:#1A0C0E;" d="M117.388,95.912c0,0-13.734,9.072-26.586,3.402c-7.812-17.766-1.134-28.224,5.166-30.366
			c6.3-2.142,16.128,2.016,19.152,10.71C118.145,88.353,117.388,95.912,117.388,95.912z"/>
		<path style="fill:#1A0C0E;" d="M153.166,86.589c0,0-5.559-5.811-6.948-17.307c-0.884-7.832,0.884-14.275,7.832-16.044
			c6.948-1.769,13.644,4.295,16.17,12.128C172.747,73.198,173.758,84.82,153.166,86.589z"/>
		<g>
			<path style="fill:#4D3F44;" d="M63.079,34.636c-4.957-0.168-9.935,2.189-12.946,6.13c-3.989,5.219-4.298,12.27-6.366,18.505
				C40.078,70.393,30.91,78.625,23.678,87.845c-2.258,2.879-4.414,6.053-4.867,9.684c-0.8,6.407,3.898,12.236,9.119,16.036
				c6.931,5.045,15.114,8.005,22.934,11.521c7.819,3.516,15.626,7.863,20.684,14.785c3.834-9.379,2.7-20.062,0.118-29.86
				c-2.582-9.798-6.54-19.244-8.286-29.224c-1.02-5.832-1.201-12.129,1.566-17.363c2.05-3.879,5.518-6.794,8.105-10.337
				C79.543,44.196,73.741,34.998,63.079,34.636z"/>
			<path style="fill:#302127;" d="M71.547,140.089c-0.069,0-0.135-0.033-0.177-0.09c-5.228-7.157-13.345-11.454-20.596-14.715
				c-1.669-0.751-3.385-1.489-5.044-2.202c-6.125-2.635-12.459-5.359-17.928-9.341c-3.096-2.254-10.192-8.348-9.207-16.24
				c0.461-3.69,2.633-6.887,4.912-9.793c1.877-2.393,3.916-4.757,5.888-7.043c5.627-6.522,11.445-13.265,14.165-21.464
				c0.662-1.997,1.152-4.116,1.625-6.165c1.003-4.34,2.04-8.827,4.774-12.404c3.06-4.005,8.097-6.378,13.128-6.216
				c5.499,0.186,9.95,2.698,11.908,6.719c1.793,3.682,1.149,8.085-1.767,12.078c-1.009,1.381-2.165,2.684-3.284,3.944
				c-1.751,1.973-3.561,4.013-4.806,6.366c-2.304,4.358-2.808,9.992-1.543,17.224c1.073,6.128,3.015,12.163,4.894,17.998
				c1.177,3.655,2.394,7.435,3.389,11.208c3.201,12.147,3.159,21.96-0.128,29.999c-0.03,0.073-0.097,0.125-0.176,0.134
				C71.565,140.089,71.556,140.089,71.547,140.089z M62.578,34.847c-4.73,0-9.395,2.29-12.272,6.053
				c-2.676,3.502-3.702,7.943-4.694,12.237c-0.476,2.059-0.968,4.188-1.637,6.204c-2.747,8.281-8.594,15.058-14.248,21.612
				c-1.969,2.283-4.006,4.643-5.876,7.028c-2.24,2.856-4.375,5.992-4.822,9.576c-0.956,7.661,5.997,13.624,9.031,15.832
				c5.429,3.953,11.74,6.667,17.843,9.293c1.661,0.714,3.378,1.453,5.051,2.205c7.197,3.236,15.244,7.491,20.537,14.54
				c3.105-7.88,3.092-17.49-0.036-29.36c-0.991-3.762-2.206-7.535-3.381-11.185c-1.884-5.85-3.831-11.899-4.908-18.057
				c-1.283-7.331-0.763-13.056,1.588-17.503c1.268-2.399,3.096-4.46,4.865-6.452c1.112-1.252,2.26-2.547,3.257-3.912
				c2.818-3.858,3.448-8.097,1.728-11.629c-1.886-3.873-6.196-6.293-11.531-6.473C62.908,34.85,62.743,34.847,62.578,34.847z"/>
		</g>
		<path style="opacity:0.49;fill:#4D3F44;" d="M36.941,79.952c4.189-2.37,8.825-6.158,9.022-11.397
			c0.025-0.663,0.521-0.402,0.615,0.072c0.374,1.896,0.649,3.81,1,5.711c1.815-2.569,3.07-5.483,4.191-8.41
			c1.139-2.973,2.022-6.189,3.76-8.878c2.996-4.635,7.613-7.97,10.484-12.69c1.722-2.83,2.405-6.354,0.658-9.229
			c-1.121-0.279-2.321-0.451-3.592-0.494c-4.957-0.168-9.935,2.189-12.946,6.13c-3.989,5.219-4.298,12.27-6.366,18.505
			c-3.187,9.607-10.461,17.059-17.045,24.853C30.283,83.118,33.754,81.755,36.941,79.952z"/>
		<path style="opacity:0.63;fill:#4D3F44;" d="M63.38,80.786c-1.02-5.832-1.201-12.129,1.566-17.363
			c2.05-3.879,5.518-6.794,8.105-10.337c3.24-4.436,3.417-8.949,1.458-12.402c-0.002,0.009-0.003,0.019-0.004,0.028
			c-0.456,2.323-1.295,4.45-2.473,6.496c-1.519,2.64-3.929,4.56-6.204,6.514c-2.358,2.024-4.35,4.299-5.966,6.961
			c-1.726,2.843-3.022,5.942-3.947,9.134c-0.869,3.003-1.478,6.16-1.314,9.297c0.316,6.072,3.276,11.581,5.488,17.118
			c2.165,5.418,3.707,11.382,2.218,17.192c-0.518,2.022-1.496,4.254-3.421,5.301c-1.84,1.001-3.928,0.497-5.657-0.493
			c-2.68-1.533-4.888-4.083-6.516-6.671c-1.639-2.607-2.717-5.526-3.347-8.533c-1.249-5.955-0.899-12.082-0.879-18.127
			c-4.373,3.518-6.119,9.215-8.389,14.139c-0.076,0.164-0.403,0.523-0.529,0.201c-1.396-3.559-1.334-7.752-0.109-11.394
			c-2.815,3.295-6.008,6.446-7.422,10.618c-0.053,0.157-0.551,0.643-0.663,0.301c-0.614-1.868-0.959-3.813-1.073-5.775
			c-0.122-2.1,0.015-4.273,0.398-6.417c-0.342,0.422-0.684,0.845-1.019,1.271c-2.258,2.879-4.414,6.053-4.867,9.684
			c-0.8,6.407,3.898,12.236,9.119,16.036c6.931,5.045,15.115,8.005,22.934,11.521c7.819,3.516,15.626,7.863,20.684,14.785
			c3.834-9.379,2.7-20.062,0.118-29.86C69.084,100.213,65.126,90.767,63.38,80.786z"/>
		<path style="fill:#730203;" d="M144.968,130.412c0,0,7.854,4.425,12.279-6.108c-1.808-0.312-4.176-0.686-6.607-3.553
			C150.889,124.865,149.144,128.168,144.968,130.412z"/>
		<path style="fill:#EF8263;" d="M154.014,126.27c-2.022-0.061-3.118,1.839-4.354,3.151c-0.644,0.684-1.35,1.293-2.133,1.81
			c2.311,0.363,5.752-0.059,8.466-4.465C155.359,126.486,154.698,126.291,154.014,126.27z"/>
		<path style="fill:#1A0C0E;" d="M85.453,62.493c0,0,7.496-9.947,13.335-10.019c5.838-0.072,6.847-2.234,5.478-4.108
			c-1.369-1.874-5.046-4.109-11.605,1.514C86.102,55.502,85.453,62.493,85.453,62.493z"/>
		<path style="fill:#1A0C0E;" d="M150.049,38.795c0,0,4.466-1.379,8.326-0.386c3.86,0.993,3.915-1.103-0.882-3.529
			c-4.797-2.426-9.815-3.529-11.139-0.662S146.74,39.622,150.049,38.795z"/>
		<path style="fill:#9A9290;" d="M116.418,96.253c0,0-12.846,8.486-24.868,3.182c-7.307-16.618-1.061-26.4,4.832-28.403
			c5.893-2.004,15.086,1.886,17.914,10.018C117.125,89.182,116.418,96.253,116.418,96.253z"/>
		<path style="fill:#FFFFFF;" d="M115.497,96.576c0,0-12.004,7.929-23.237,2.973c-6.828-15.528-0.991-24.669,4.515-26.541
			c5.506-1.872,14.096,1.762,16.739,9.361C116.158,89.968,115.497,96.576,115.497,96.576z"/>
		<path style="fill:#9A9290;" d="M153.542,86.589c0,0-5.186-5.421-6.482-16.146c-0.825-7.307,0.825-13.318,7.307-14.968
			c6.482-1.65,12.729,4.007,15.086,11.314C171.81,74.096,172.753,84.939,153.542,86.589z"/>
		<path style="fill:#FFFFFF;" d="M153.849,86.589c0,0-4.882-5.104-6.102-15.199c-0.777-6.879,0.777-12.537,6.879-14.09
			c6.102-1.553,11.982,3.772,14.201,10.651C171.046,74.829,171.933,85.035,153.849,86.589z"/>
		<g>
			<path style="fill:#A9A198;" d="M174.002,101.744c-0.106-0.196-0.237-0.398-0.398-0.554c-0.159-0.153-0.382-0.258-0.582-0.345
				c-0.388-0.169-0.842-0.2-1.26-0.168c-0.962,0.074-1.844,0.609-2.37,1.416c-0.06,0.092-0.171,0.308-0.032,0.381
				c0.136,0.072,0.339-0.112,0.412-0.202c0.029-0.035,0.058-0.07,0.089-0.104c0.012-0.014,0.012-0.014,0.017-0.02
				c0.005-0.004,0.008-0.005,0.026-0.021c0.008-0.007,0.055-0.047,0.063-0.054c0.023-0.017,0.046-0.033,0.07-0.049
				c0.018-0.012,0.036-0.024,0.055-0.035c-0.029,0.018-0.031,0.022-0.005,0.01c0.031-0.011,0.061-0.021,0.092-0.031
				c0.08-0.026,0.158-0.057,0.237-0.084c0.021-0.007,0.023-0.008,0.029-0.01c0.007-0.001,0.008-0.001,0.028-0.006
				c0.042-0.01,0.084-0.019,0.126-0.027c0.078-0.014,0.157-0.025,0.237-0.031c0.08-0.006,0.133-0.008,0.188-0.007
				c-0.046,6.694-0.479,14.601-5.978,19.237c-2.523,2.128-5.973,3.239-9.231,2.401c-2.634-0.677-4.876-2.59-5.931-5.093
				c-0.139-0.498-0.297-0.991-0.484-1.473c-0.057-0.147-0.375,0.17-0.336,0.302c0.611,2.071,0.815,4.209,0.729,6.354
				c-0.212,1.099-0.537,2.137-1.251,3.149c-1.158,1.641-2.912,2.769-4.744,3.528c-3.358,1.391-7.135,1.863-10.75,1.739
				c-7.108-0.243-14.14-2.776-19.675-7.444c-1.712-1.444-3.298-2.881-4.727-3.287c0.116-0.022,0.233-0.044,0.348-0.067
				c0.231-0.047,0.431-0.247,0.539-0.448c0.057-0.106,0.183-0.427-0.036-0.456c-1.201-0.159-2.539,0.264-3.442,1.077
				c-0.831,0.748-1.498,1.894-1.154,3.037c0.077,0.255,0.554-0.257,0.544-0.422c-0.029-0.441,0.063-0.843,0.266-1.234
				c0.089-0.171,0.171-0.289,0.29-0.423c0.006-0.007,0.055-0.057,0.073-0.077c0.023-0.021,0.066-0.061,0.072-0.066
				c0.04-0.035,0.082-0.069,0.124-0.102c0.013-0.009,0.046-0.033,0.062-0.044c0.078-0.054,0.167-0.088,0.249-0.135
				c1.712,0.605,4.252,2.242,4.252,2.242c1.476,1.186,2.798,2.525,4.346,3.627c2.892,2.059,6.168,3.614,9.589,4.558
				c3.433,0.948,7.035,1.313,10.588,1.059c3.641-0.26,7.503-1.081,10.613-3.074c1.666-1.068,3.097-2.487,4.063-4.222
				c0.661-1.188,1.317-2.822,1.144-4.267c1.194,1.353,2.846,2.312,4.659,2.696c3.239,0.687,6.64-0.608,9.149-2.629
				c5.916-4.766,6.614-12.85,6.653-19.934c0.035,0.011,0.073,0.014,0.108,0.026c0.084,0.03,0.165,0.065,0.247,0.102
				c0.034,0.016,0.069,0.031,0.103,0.047c0.005,0.004,0.069,0.037,0.075,0.04c0.289,0.167,0.58,0.393,0.793,0.651
				c0.074,0.09,0.27,0.053,0.354,0.018c0.139-0.057,0.257-0.146,0.363-0.252C173.842,102.383,174.139,101.998,174.002,101.744z"/>
			<path style="fill:#A9A198;" d="M120.101,66.671c-1.361-4.097-3.038-8.051-5.044-11.874c-0.08-0.153-0.417,0.186-0.356,0.32
				c2.912,6.392,5.209,13.082,6.716,19.945c1.556,7.083,2.647,14.77,0.765,21.898c-0.968,3.667-2.761,7.13-5.456,9.826
				c-0.337,0.337-0.331,1.034,0.195,0.541c4.901-4.603,6.936-11.299,7.105-17.878C124.223,81.808,122.499,73.89,120.101,66.671z"/>
			<path style="fill:#A9A198;" d="M150.834,82.879c-1.652-3.167-3.439-6.207-4.819-9.515c-1.354-3.246-2.468-6.612-3.232-10.046
				c-1.529-6.875-1.216-14.904,4.415-19.913c0.17-0.151,0.191-0.462-0.078-0.246c-5.522,4.453-6.581,11.978-5.541,18.609
				c0.623,3.969,1.819,7.872,3.29,11.605c1.383,3.508,3.02,7.16,5.262,10.213C150.315,83.835,150.967,83.133,150.834,82.879z"/>
			<path style="fill:#A9A198;" d="M161.967,50.474c-2.747-2.57-7.269-2.316-10.362-0.562c-3.134,1.777-5.277,5.159-5.683,8.714
				c-0.027,0.236,0.389-0.114,0.416-0.236c0.687-3.216,2.532-6.305,5.561-7.793c3.069-1.507,6.516-1.009,9.395,0.652
				C161.594,51.422,162.232,50.723,161.967,50.474z"/>
			<path style="fill:#A9A198;" d="M98.181,65.567c-4.324,0.613-8.318,3.597-9.627,7.827c-0.067,0.216,0.25-0.039,0.287-0.135
				c1.723-4.352,6.136-7.578,10.89-7.414c2.13,0.073,4.219,0.751,6.071,1.79c1.897,1.064,3.286,2.548,4.709,4.157
				c0.093,0.105,0.389-0.227,0.33-0.336C108.482,67.102,102.936,64.893,98.181,65.567z"/>
			<path style="fill:#A9A198;" d="M120.629,93.31c-2.373,1.693-4.633,3.381-7.284,4.637c-2.568,1.217-5.287,2.114-8.079,2.646
				c-5.282,1.007-11.063,0.721-15.67-2.318c-0.162-0.107-0.537,0.32-0.395,0.454c4.181,3.929,10.403,4.019,15.734,2.974
				c2.933-0.575,5.793-1.525,8.482-2.83c2.59-1.257,5.258-2.804,7.334-4.822C121.02,93.791,121.271,92.852,120.629,93.31z"/>
			<path style="fill:#A9A198;" d="M171.752,77.559c-1.448,1.325-2.753,2.779-4.277,4.025c-1.594,1.303-3.327,2.45-5.205,3.301
				c-1.819,0.824-3.754,1.395-5.749,1.562c-1.846,0.155-3.923,0.104-5.415-1.132c-0.156-0.129-0.559,0.331-0.413,0.475
				c2.798,2.75,8.055,1.385,11.191,0.01c3.82-1.674,7.533-4.565,10.157-7.807C172.323,77.644,172.212,77.138,171.752,77.559z"/>
		</g>
		<path style="fill:#1D0D0E;" d="M83.543,113.951c0.011,1.205,0.49,2.379,1.221,3.338c0.813,1.066,1.983,1.903,3.306,2.114
			c1.324,0.211,2.788-0.285,3.553-1.385c0.599-0.862,0.721-1.99,0.529-3.021c-0.192-1.032-0.671-1.988-1.194-2.898
			c-0.609-1.061-1.602-2.424-2.981-2.379c-1.382,0.045-2.926,0.621-3.716,1.789C83.779,112.221,83.535,113.092,83.543,113.951z"/>
		<g>
			<path d="M88.356,80c0,0-4.128,0.86-6.994-0.287c2.236,2.752,6.593,2.35,6.593,2.35L88.356,80z"/>
			<path d="M88.094,84.299c0,0-3.24,1.497-5.823,1.099c2.369,1.843,5.886,0.68,5.886,0.68L88.094,84.299z"/>
		</g>
		<g>
			<path d="M161.42,55.124c0,0,3.691-2.306,5.01-5.207c0.298,3.647-3.237,6.459-3.237,6.459L161.42,55.124z"/>
			<path d="M164.684,58.142c0,0,3.484-1.197,5.125-3.337c-0.451,3.065-3.903,4.708-3.903,4.708L164.684,58.142z"/>
		</g>
		<g>
			<defs>
				<path id="SVGID_1_" d="M116.418,96.253c0,0-12.846,8.486-24.868,3.182c-7.307-16.618-1.061-26.4,4.832-28.403
					c5.893-2.004,15.086,1.886,17.914,10.018C117.125,89.182,116.418,96.253,116.418,96.253z"/>
			</defs>
			<clipPath id="SVGID_00000079444215088396957030000003916374620983911844_">
				<use xlink:href="#SVGID_1_"  style="overflow:visible;"/>
			</clipPath>
			<g style="clip-path:url(#SVGID_00000079444215088396957030000003916374620983911844_);">
				<path style="fill:#270605;" d="M118.685,86.368c1.081,6.68-3.551,12.785-10.345,13.637c-6.794,0.852-13.179-3.873-14.26-10.553
					c-1.081-6.68,3.551-12.785,10.345-13.637C111.22,74.964,117.604,79.689,118.685,86.368z"/>
				<path style="fill:#170301;" d="M116.087,86.694c0.853,5.269-2.801,10.085-8.16,10.757c-5.359,0.672-10.395-3.055-11.248-8.324
					c-0.853-5.269,2.801-10.085,8.16-10.757C110.198,77.699,115.234,81.425,116.087,86.694z"/>
				<g>
					<path style="fill:#FBF5F1;" d="M105.451,84.306c-1.227,2.244-4.071,3.28-6.354,2.313c-2.283-0.966-3.139-3.569-1.912-5.813
						c1.227-2.244,4.071-3.28,6.354-2.313C105.821,79.46,106.677,82.062,105.451,84.306z"/>
					<path style="fill:#FBF5F1;" d="M115.152,83.907c-0.514,0.94-1.705,1.374-2.661,0.969c-0.956-0.405-1.315-1.495-0.801-2.435
						c0.514-0.94,1.705-1.374,2.661-0.969C115.307,81.877,115.666,82.967,115.152,83.907z"/>
				</g>
				<path style="fill:#701206;" d="M96.313,88.007c0,0,3.101,6.939,11.659,5.398c7.848-1.413,8.095-9.272,8.095-9.272
					s4.311,11.413-6.852,13.78C95.975,100.719,96.313,88.007,96.313,88.007z"/>
				<path style="fill:#F4892F;" d="M97.587,90.838c0,0,3.421,5.463,10.271,4.559c7.433-0.981,7.811-6.924,7.811-6.924
					s1.643,6.926-6.589,8.683C98.585,99.396,97.587,90.838,97.587,90.838z"/>
			</g>
		</g>
		<g>
			<defs>
				<path id="SVGID_00000094599285721513568420000011752252136432845954_" d="M153.542,86.589c0,0-5.186-5.421-6.482-16.146
					c-0.825-7.307,0.825-13.318,7.307-14.968c6.482-1.65,12.729,4.007,15.086,11.314C171.81,74.096,172.753,84.939,153.542,86.589z"
					/>
			</defs>
			<clipPath id="SVGID_00000041991902529538089130000006810547026394111632_">
				<use xlink:href="#SVGID_00000094599285721513568420000011752252136432845954_"  style="overflow:visible;"/>
			</clipPath>
			<g style="clip-path:url(#SVGID_00000041991902529538089130000006810547026394111632_);">
				<path style="fill:#270605;" d="M168.74,71.526c1.081,6.68-3.551,12.785-10.345,13.637c-6.794,0.852-13.179-3.873-14.26-10.552
					c-1.081-6.68,3.551-12.785,10.345-13.637C161.275,60.122,167.659,64.847,168.74,71.526z"/>
				<path style="fill:#170301;" d="M166.141,71.852c0.853,5.269-2.8,10.085-8.16,10.757c-5.359,0.672-10.395-3.055-11.248-8.324
					c-0.853-5.269,2.801-10.085,8.16-10.757C160.253,62.857,165.289,66.583,166.141,71.852z"/>
				<g>
					<path style="fill:#FBF5F1;" d="M155.506,69.464c-1.227,2.244-4.071,3.279-6.354,2.313c-2.283-0.966-3.139-3.569-1.912-5.813
						c1.227-2.244,4.072-3.28,6.354-2.313C155.876,64.618,156.732,67.22,155.506,69.464z"/>
					<path style="fill:#FBF5F1;" d="M165.207,69.065c-0.514,0.94-1.705,1.374-2.661,0.969c-0.956-0.405-1.315-1.495-0.801-2.435
						c0.514-0.94,1.705-1.374,2.661-0.969C165.362,67.035,165.721,68.125,165.207,69.065z"/>
				</g>
				<path style="fill:#701206;" d="M146.368,73.165c0,0,3.101,6.939,11.659,5.398c7.848-1.413,8.095-9.272,8.095-9.272
					s4.311,11.413-6.852,13.78C146.03,85.878,146.368,73.165,146.368,73.165z"/>
				<path style="fill:#F4892F;" d="M147.642,75.996c0,0,3.421,5.463,10.27,4.559c7.434-0.981,7.811-6.924,7.811-6.924
					s1.643,6.926-6.589,8.683C148.64,84.554,147.642,75.996,147.642,75.996z"/>
			</g>
		</g>
		<g>
			<g>
				<path style="fill:#786860;" d="M128.05,109c1.653,2.491,4.421,4.583,7.053,5.881c2.857,1.41,6.343,2.727,9.473,3.538
					c7.797,2.02,12.625-3.153,15.749-7.544c2.208-3.103,4.193-7.79,3.279-11.472c-0.874-3.523-3.993-6.083-7.834-6.648
					c-6.905-1.015-12.587,0.955-18.721,3.521c-3.123,1.306-6.718,3.548-8.744,6.25C126.517,104.912,126.789,107.1,128.05,109z"/>
				<path style="fill:#4C372F;" d="M147.939,119.079c-1.073,0-2.209-0.141-3.417-0.454c-3.094-0.802-6.562-2.097-9.514-3.554
					c-3.009-1.484-5.61-3.654-7.136-5.954l0,0c-1.488-2.242-1.4-4.502,0.261-6.72c1.795-2.394,5.097-4.756,8.833-6.319
					c5.878-2.458,11.742-4.578,18.835-3.535c3.985,0.586,7.129,3.258,8.01,6.807c0.949,3.826-1.191,8.666-3.313,11.647
					C157.923,114.619,153.96,119.079,147.939,119.079z M152.106,92.7c-5.424,0-10.193,1.774-14.975,3.773
					c-3.668,1.535-6.904,3.845-8.655,6.181c-1.543,2.057-1.626,4.153-0.248,6.229l0,0c1.485,2.239,4.025,4.356,6.969,5.808
					c2.928,1.444,6.366,2.728,9.433,3.523c7.733,2.006,12.561-3.299,15.522-7.461c2.069-2.908,4.16-7.612,3.246-11.298
					c-0.838-3.381-3.845-5.927-7.657-6.488C154.493,92.783,153.284,92.7,152.106,92.7z"/>
			</g>
			<path style="fill:#786860;" d="M163.605,99.403c-0.416-1.675-1.343-3.128-2.609-4.256c-0.444,2.101-1.326,4.116-2.755,5.826
				c-1.557,1.863-3.822,3.34-6.313,3.877c-2.853,0.615-5.583-0.269-8.39-0.556c-1.434-0.146-2.925-0.152-4.303,0.321
				c-1.233,0.423-2.356,1.105-3.435,1.791c-1.163,0.74-2.289,1.531-3.477,2.237c-0.989,0.588-2.052,1.155-3.213,1.376
				c-0.092,0.018-0.18,0.024-0.269,0.035c1.667,2.024,4.012,3.717,6.262,4.827c2.857,1.41,6.343,2.727,9.473,3.538
				c7.797,2.02,12.625-3.153,15.749-7.544C162.533,107.773,164.518,103.085,163.605,99.403z"/>
			<path style="fill:#786860;" d="M163.468,104.168c-1.917-0.397-4.218,0.357-5.759,1.327c-0.807,0.508-1.594,1.17-1.938,2.031
				c-0.319,0.798-0.341,1.721-0.018,2.51c0.31,0.756,0.975,1.359,1.84,1.557c0.722,0.165,1.507-0.036,2.18-0.298
				c0.129-0.05,0.245-0.117,0.371-0.171c0.06-0.083,0.123-0.166,0.181-0.248C161.644,109.021,162.879,106.601,163.468,104.168z"/>
			<path style="fill:#786860;" d="M143.466,110.915c-0.634-0.977-1.843-1.608-3.038-1.828c-2.232-0.411-4.68,0.317-6.494,1.559
				c-0.872,0.597-1.579,1.36-2.108,2.212c1.057,0.791,2.176,1.479,3.277,2.022c0.933,0.46,1.937,0.908,2.969,1.334
				c1.615-0.805,3.357-1.496,4.727-2.626C143.697,112.849,144.125,111.932,143.466,110.915z"/>
			<path style="fill:#F6F8EE;" d="M154.996,93.703c-3.701-0.819-7.964-0.158-11.542,1c-3.647,1.181-6.901,3.053-9.675,5.546
				c-0.173,0.156-0.253,0.662,0.096,0.386c2.751-2.176,6.017-3.829,9.476-4.793c3.657-1.019,7.248-1.08,11.012-0.987
				C154.805,94.866,155.59,93.835,154.996,93.703z"/>
			<path style="fill:#F6F8EE;" d="M158.851,94.866c-0.036-0.093-0.073-0.194-0.129-0.278c-0.063-0.093-0.179-0.193-0.283-0.25
				c-0.199-0.11-0.419-0.191-0.643-0.25c-0.427-0.113-0.946-0.054-1.367,0.069c-0.195,0.057-0.345,0.241-0.423,0.406
				c-0.038,0.081-0.125,0.36,0.064,0.353c0.24-0.009,0.475,0.029,0.702,0.097c0.229,0.08,0.457,0.185,0.655,0.315
				c0.108,0.07,0.207,0.151,0.313,0.224c0.109,0.075,0.234,0.12,0.351,0.184c0.197,0.108,0.445-0.12,0.554-0.246
				C158.79,95.325,158.935,95.081,158.851,94.866z"/>
		</g>
		<path style="fill:#FFFFFF;" d="M157.866,89.432c-2.879-1.523-6.224-1.694-9.429-1.558c-3.341,0.142-6.724,0.675-9.894,1.76
			c-5.538,1.896-10.506,5.658-12.777,11.181c-0.261,0.636,0.521,0.225,0.678-0.105c2.438-5.137,7.41-8.416,12.741-9.979
			c5.936-1.74,11.968-1.667,17.967-0.354C157.469,90.446,158.221,89.62,157.866,89.432z"/>
		<g>
			<path style="fill:#F6F8EE;" d="M100.481,25.47c0,0-6.266-9.618-0.583-18.216c-0.437,5.683,1.603,10.492,1.603,10.492
				s4.08-11.95,14.136-13.698c-6.558,6.558-4.663,11.804-4.663,11.804s4.226-11.658,17.487-6.995
				c-6.558,0.146-11.513,6.704-12.095,8.889c6.849-6.703,13.407-4.226,17.779-0.291c-6.121-0.583-13.553,3.06-15.156,6.121"/>
			<path style="fill:#C7C7C3;" d="M100.481,25.689c-0.071,0-0.141-0.035-0.183-0.1c-0.064-0.097-6.279-9.838-0.583-18.456
				c0.055-0.084,0.161-0.118,0.254-0.086c0.094,0.032,0.155,0.124,0.147,0.223c-0.344,4.487,0.887,8.467,1.386,9.861
				c0.957-2.373,5.271-11.765,14.097-13.3c0.099-0.02,0.188,0.03,0.232,0.115c0.044,0.085,0.028,0.188-0.039,0.256
				c-5.1,5.101-5.007,9.406-4.753,10.958c1.133-2.37,5.99-10.555,17.496-6.51c0.1,0.035,0.16,0.136,0.144,0.241
				c-0.017,0.104-0.106,0.182-0.211,0.184c-5.593,0.124-10.152,5.164-11.524,7.832c7.383-6.571,14-2.629,17.348,0.384
				c0.07,0.063,0.092,0.165,0.054,0.251c-0.038,0.086-0.132,0.136-0.22,0.13c-4.436-0.428-12.895,2.098-14.941,6.005
				c-0.056,0.107-0.188,0.149-0.296,0.092c-0.107-0.056-0.148-0.188-0.092-0.296c1.633-3.117,8.733-6.56,14.713-6.283
				c-3.483-2.928-9.917-6.209-16.989,0.712c-0.07,0.069-0.178,0.082-0.263,0.032c-0.085-0.05-0.126-0.15-0.101-0.245
				c0.518-1.943,4.927-8.159,11.186-8.967c-4.953-1.479-9.134-0.795-12.44,2.037c-2.646,2.266-3.711,5.137-3.721,5.167
				c-0.032,0.086-0.114,0.144-0.206,0.144l0,0c-0.092,0-0.174-0.058-0.206-0.144c-0.077-0.214-1.774-5.186,4.22-11.526
				c-4.746,1.08-8.044,4.512-10.004,7.269c-2.236,3.144-3.266,6.117-3.276,6.147c-0.029,0.086-0.109,0.145-0.199,0.148
				c-0.085,0.004-0.173-0.05-0.209-0.133c-0.02-0.046-1.853-4.439-1.667-9.733c-4.746,8.19,0.972,17.16,1.032,17.252
				c0.066,0.101,0.037,0.237-0.064,0.303C100.564,25.677,100.522,25.689,100.481,25.689z"/>
		</g>
		<path style="opacity:0.68;fill:#CFC8C1;" d="M98.9,15.892c1.746,5.529,3.638,7.567,3.638,7.567s-0.873-8.003,6.111-13.823
			c-0.873,6.839,1.746,10.913,1.746,10.913s1.31-8.731,9.749-11.059c-6.111,6.839-4.511,11.495-4.511,11.495
			s3.201-6.548,12.077-5.529c-9.604,4.511-10.331,6.839-9.895,10.622c2.756-3.087,11.529-7.507,22.011-7.57
			c-2.094-0.505-4.242-0.868-6.434-1.092c0.251,0.01,0.504,0.016,0.751,0.039c-4.372-3.935-10.93-6.412-17.779,0.291
			c0.583-2.186,5.538-8.744,12.095-8.889c-13.261-4.663-17.487,6.995-17.487,6.995s-1.894-5.246,4.663-11.804
			c-10.055,1.749-14.136,13.698-14.136,13.698s-2.04-4.809-1.603-10.492c-3.724,5.634-2.317,11.707-0.905,15.223
			c-1.373,0.553-2.678,1.15-3.932,1.775c1.847,0.332,4.004,1.361,6.312,3.717C101.373,27.97,98.609,20.985,98.9,15.892z"/>
		<path style="fill:#FFFFFF;" d="M159.69,32.01c-1.465-2.138-3.469-3.723-5.559-5.22c-2.221-1.591-4.482-3.184-6.855-4.542
			c-4.862-2.783-10.046-3.855-15.483-2.22c-0.194,0.058-0.586,0.672-0.286,0.596c5.423-1.374,10.596,0.281,15.212,3.129
			c4.291,2.648,10.462,6.481,14.023,10.058C161.084,34.153,159.933,32.364,159.69,32.01z"/>
		<path style="fill:#FFFFFF;" d="M178.464,85.549c-0.189-0.068-1.161-0.25-0.984-0.162c2.947,1.462,6.788,4.475,6.829,8.13
			c0.042,3.705-2.691,7.999-4.506,11.039c-0.476,0.798,0.423-0.115,0.794-0.622c2.269-3.098,4.917-6.957,4.88-10.97
			C185.44,88.968,181.803,86.757,178.464,85.549z"/>
	</g>
</g>
</svg>
